<?xml version="1.0" encoding="UTF-8"?>
<svg width="27.6" height="27.6" fill="rgba(19, 19, 19, 1)" version="1.1" viewBox="0 0 27.6 27.6" xmlns="http://www.w3.org/2000/svg">
 <path d="m12.4 0c-0.1 0-0.20117 0.0011729-0.20117 0.20117-1.6 5.8-6.2 10.5-12 12l-0.19922 0.29883v0.30078c0 0.1 0.10078 0.19922 0.30078 0.19922h12.5c0.1 0 0.19922 7.81e-4 0.19922-0.19922v-12.5c0-0.2 7.77e-4 -0.30078-0.19922-0.30078zm2.2988 0c-0.1 0-0.19922 0.10078-0.19922 0.30078v12.5c0 0.1-7.81e-4 0.19922 0.19922 0.19922h12.602c0.2 0 0.29883 7.81e-4 0.29883-0.19922v-0.40039c0-0.1 7.81e-4 -0.19922-0.19922-0.19922-5.9-1.6-10.5-6.1-12-12l-0.40039-0.20117zm-14.398 14.5c-0.2 0-0.30078 0.20079-0.30078 0.30078v0.40039c0 0.1-7.8026e-4 0.19922 0.19922 0.19922 5.9 1.5 10.5 6.1 12 12l0.30078 0.19922h0.30078c0.1 0 0.19922-0.09883 0.19922-0.29883v-12.5c0-0.1 7.77e-4 -0.30078-0.19922-0.30078zm14.5 0-0.20117 0.30078v12.5c0 0.2 0.0012 0.29883 0.20117 0.29883h0.39844l0.20117-0.19922c1.6-5.9 6.1-10.5 12-12l0.19922-0.30078v-0.29883c0-0.1-0.09883-0.30078-0.29883-0.30078z" fill="#000"/>
</svg>
