<?xml version="1.0" encoding="UTF-8" standalone="no"?>
<!-- Created with Inkscape (http://www.inkscape.org/) -->

<svg
   width="500"
   height="500"
   viewBox="0 0 132.29166 132.29167"
   version="1.1"
   id="svg5"
   xmlns="http://www.w3.org/2000/svg"
   xmlns:svg="http://www.w3.org/2000/svg">
  <defs
     id="defs2" />
  <g
     id="layer1">
    <path
       id="path230"
       style="opacity:1;fill:#e3f33a;fill-opacity:1;stroke-width:0.264583;stroke-linecap:square;stroke-linejoin:round"
       d="m 49.412377,11.039119 v 11.038603 h 1.994194 a 40.738937,42.578758 0 0 0 -18.586462,11.64115 42.578758,40.738937 23.392498 0 0 -4.382162,4.4974 L 28.567655,37.916549 18.43649,33.53387 8.8360428,55.726831 18.967207,60.109509 19.75889,58.27913 a 42.578758,40.738937 23.392498 0 0 2.268596,19.111495 40.738937,42.578758 57.559791 0 0 0.2651,1.087272 l -0.175183,-0.275952 -9.315711,5.921602 12.970785,20.407023 9.31571,-5.921602 -1.069702,-1.682585 a 40.738937,42.578758 57.559791 0 0 19.794657,9.441287 42.578758,40.738937 80.952289 0 0 4.33462,0.98133 40.738937,42.578758 49.9483 0 0 1.504301,0.35347 l -0.01499,0.003 1.735812,10.90115 23.879679,-3.80235 -1.144633,-7.18716 A 42.578758,40.738937 26.555802 0 0 102.52231,96.349158 l -0.14573,0.292488 9.87382,4.935104 10.81019,-21.629692 -9.87381,-4.935099 -0.89142,1.78387 a 42.578758,40.738937 26.555802 0 0 -2.10375,-21.830192 40.738937,42.578758 49.9483 0 0 -2.06396,-5.930387 l 0.21033,0.250114 8.44961,-7.102926 -15.55977,-18.509464 -8.449614,7.102925 1.283643,1.526522 A 40.738937,42.578758 49.9483 0 0 85.192106,27.879435 40.738937,42.578758 0 0 0 73.266219,22.077722 h 0.326595 V 11.039119 Z" />
    <path
       style="fill:none;fill-rule:evenodd;stroke:#000000;stroke-width:0.264583"
       id="path1505"
       d="m 46.258408,40.476105 c 0.317214,1.755177 -2.209441,1.293541 -2.91722,0.527231 -1.918036,-2.076652 -0.267411,-5.233742 1.862757,-6.36167 3.810371,-2.017599 8.291299,0.545473 9.806121,4.252745 2.223063,5.440571 -1.355187,11.400186 -6.642734,13.250572 C 41.319864,54.611257 33.838747,49.983069 31.67231,43.112261 28.94607,34.466049 34.639073,25.445661 43.09502,22.972788 53.336306,19.977806 63.905113,26.743251 66.678944,36.785486 69.947808,48.619913 62.105511,60.742498 50.476257,63.813861 37.049823,67.359871 23.37004,58.437945 20.003432,45.221186 16.178078,30.203463 26.181492,14.96416 40.986096,11.303909 57.594623,7.1976613 74.395096,18.283871 78.347822,34.676561 82.736098,52.875555 70.566139,71.238413 52.585182,75.482739 32.795971,80.153895 12.869804,66.899471 8.3345537,47.33011 3.3798584,25.950868 17.7193,4.4606759 38.877171,-0.36496867 61.846302,-5.603722 84.901086,9.8211723 90.016701,32.567637 c 2.716481,12.078775 0.188834,24.975806 -6.737648,35.218789"
       transform="translate(16.821239,26.80885)" />
  </g>
</svg>
