<?xml version="1.0" encoding="UTF-8" standalone="no"?>
<!-- Created with Inkscape (http://www.inkscape.org/) -->

<svg
   width="210mm"
   height="297mm"
   viewBox="0 0 210 297"
   version="1.1"
   class="svg"
   id="svg108"
   xmlns="http://www.w3.org/2000/svg"
   >
  <defs
     class="defs"
     id="defs2" />
  <g
     class="layer1"
     id="g106">
    <path
       style="fill:#696969;stroke:#d10000;stroke-width:1.09632;stroke-dasharray:1.09632, 1.09632"
       d=""
       class="path"
       transform="scale(0.26458333)"
       id="path4" />
    <path
       class="rect"
       style="fill:#808080;stroke:#d10000;stroke-width:0.0920727;stroke-dasharray:0.0920727, 0.0920727"
       d="m 105.27368,7.1923258 c -0.0114,0.00976 -0.0228,0.019517 -0.0341,0.029456 -0.0678,0.059696 -0.13487,0.1046933 -0.19947,0.1369426 L 82.358797,99.017729 86.192155,115.2555 c 0.0204,0.003 0.04109,0.007 0.06149,0.01 l 5.236373,24.57421 c 0.1379,-0.0342 0.276852,-0.0635 0.414962,-0.0966 -1.264695,10.50944 -2.1181,24.81023 -2.27118,40.63783 -0.289615,29.94571 2.026144,54.54257 5.312854,58.27861 a 19.198515,25.243658 0 0 0 -8.716263,21.14238 19.198515,25.243658 0 0 0 19.198824,25.24394 19.198515,25.243658 0 0 0 19.19831,-25.24394 19.198515,25.243658 0 0 0 -8.97051,-21.36148 c 3.15496,-5.20917 5.71318,-28.85135 5.98982,-57.45489 0.17056,-17.63579 -0.56406,-33.41095 -1.86655,-44.17302 0.18532,0.0165 0.3701,0.0339 0.55138,0.0548 -0.12391,-0.30633 -0.24088,-0.61597 -0.3669,-0.92139 l 4.54288,-18.9637 c 0.0621,-0.0652 0.12482,-0.12471 0.185,-0.17364 l 3.30471,-13.36042 z m 21.27157,85.8242192 -0.11679,0.02222 c 0.0446,0.01922 0.0891,0.03864 0.13384,0.05788 z"
       id="path6" />
    <ellipse
       style="fill:#f5f5f5;stroke:#d10000;stroke-width:0.174711;stroke-dasharray:0.174711, 0.174711"
       class="path"
       cx="105.74321"
       cy="260.20398"
       rx="14.620255"
       ry="21.084818"
       id="ellipse8" />
    <path
       style="display:inline;fill:none;fill-rule:evenodd;stroke:#000000;stroke-width:0.264583px;stroke-linecap:butt;stroke-linejoin:miter;stroke-opacity:1"
       d="m 120.05922,137.71499 -29.178477,2.04435"
       class="path"
       id="path14" />
    <path
       style="display:inline;fill:none;fill-rule:evenodd;stroke:#000000;stroke-width:0.264583px;stroke-linecap:butt;stroke-linejoin:miter;stroke-opacity:1"
       d="M 127.99912,103.55575 82.134955,99.087611"
       class="path"
       id="path18" />
    <path
       style="fill:none;fill-rule:evenodd;stroke:#000000;stroke-width:0.265321px;stroke-linecap:butt;stroke-linejoin:miter;stroke-opacity:1"
       d="m 105.14475,7.2162559 0.2323,132.2324341"
       class="path"
       id="path20" />
    <path
       style="fill:#ffa500;stroke:#d10000;stroke-width:1.09632;stroke-dasharray:1.09632, 1.09632"
       d="m 382.05372,1073.1246 c -33.54144,-11.5896 -54.23824,-46.3287 -54.23824,-91.03759 0,-28.62958 8.16522,-52.877 23.77959,-70.61587 l 7.84375,-8.91098 -3.78448,-9.95992 c -15.61087,-41.0845 -20.65949,-217.86653 -9.67532,-338.79075 l 2.30096,-25.3312 11.12543,-0.27859 c 14.99196,-0.37542 35.79525,-1.62731 66.44376,-3.99839 14.03431,-1.08575 25.79266,-1.68515 26.12968,-1.33201 1.82437,1.91169 5.26111,63.51818 6.29784,112.89406 2.14147,101.99137 -6.20847,217.97125 -18.41351,255.76196 l -3.35417,10.38559 8.44181,9.15827 c 15.67568,17.00612 24.28351,42.45089 24.14877,71.38389 -0.21048,45.19813 -22.25933,81.27993 -55.71731,91.17853 -13.58318,4.0186 -18.45939,3.9397 -31.32856,-0.507 z m 36.66241,-13.9758 c 41.66638,-21.5066 50.17463,-102.59488 14.6837,-139.94371 -26.21376,-27.58606 -62.41529,-19.09627 -80.31982,18.83615 -14.32348,30.3456 -11.72267,75.33336 5.85566,101.28866 15.51547,22.9093 38.82291,30.6364 59.78046,19.8189 z"
       class="path"
       transform="scale(0.26458333)"
       id="path24" />
    <path
       style="fill:#ffa500;stroke:#d10000;stroke-width:1.09632;stroke-dasharray:1.09632, 1.09632"
       d="m 337.94909,486.40427 c -4.70616,-22.2071 -12.04062,-54.89993 -16.29879,-72.65075 -4.25818,-17.75081 -7.74214,-33.41101 -7.74214,-34.80044 0,-2.00095 8.67522,-1.7203 41.72197,1.34975 l 41.72197,3.87598 v 69.04787 69.04786 l -8.44373,1.05085 c -4.64405,0.57796 -16.08448,1.59188 -25.42318,2.25313 l -16.97945,1.20229 z"
       class="path"
       transform="scale(0.26458333)"
       id="path26" />
    <path
       style="fill:#ffa500;stroke:#d10000;stroke-width:1.09632;stroke-dasharray:1.09632, 1.09632"
       d="m 399.33886,454.05579 v -68.62425 h 4.44151 c 6.20736,0 69.15421,5.9298 74.21118,6.99094 4.02907,0.84545 3.72714,2.55082 -10.43049,58.91412 -8.01882,31.92391 -14.57966,59.62699 -14.57966,61.5624 0,5.5321 -5.28221,7.00359 -30.2981,8.44032 l -23.34444,1.34072 z"
       class="path"
       transform="scale(0.26458333)"
       id="path28" />
    <path
       style="fill:#ffa500;stroke:#d10000;stroke-width:1.09632;stroke-dasharray:1.09632, 1.09632"
       d="m 437.08731,385.34384 c -18.02985,-1.93683 -33.8991,-3.60346 -35.265,-3.70366 -1.96748,-0.14432 -2.4476,-35.57789 -2.31088,-170.54688 l 0.17256,-170.36471 5.55553,22.847746 c 3.05554,12.56626 20.48941,86.324744 38.74193,163.907744 18.25253,77.583 34.3649,145.75372 35.80527,151.49049 l 2.61887,10.43049 -6.26837,-0.26986 c -3.4476,-0.14841 -21.02006,-1.85452 -39.04991,-3.79136 z"
       class="path"
       transform="scale(0.26458333)"
       id="path30" />
    <path
       style="fill:#ffa500;stroke:#d10000;stroke-width:1.09632;stroke-dasharray:1.09632, 1.09632"
       d="m 352.8123,377.3164 c -19.57965,-2.00357 -36.60421,-3.90296 -37.83235,-4.22084 -1.43543,-0.37154 12.44672,-59.47492 38.8676,-165.47909 l 41.10056,-164.901119 0.20862,91.562289 c 0.11473,50.35926 0.80089,126.57637 1.5248,169.37133 l 1.31618,77.80905 -4.79302,-0.24938 c -2.63615,-0.13709 -20.81273,-1.88868 -40.39239,-3.89224 z"
       class="path"
       transform="scale(0.26458333)"
       id="path32" />
    <path
       style="fill:#1e90ff;stroke:#d10000;stroke-width:1.09632;stroke-dasharray:1.09632, 1.09632"
       d="m 349.17885,375.60162 c -17.20718,-1.87206 -31.67897,-3.79695 -32.15954,-4.27751 -1.2495,-1.24952 11.5227,-55.53645 39.91812,-169.66792 C 370.53061,147.02028 384.0672,92.483701 387.01875,80.4638 l 5.36645,-21.854365 1.3466,122.185775 c 0.74063,67.20217 1.63468,139.39614 1.98676,160.43105 l 0.64016,38.24527 -7.94704,-0.23308 c -4.37087,-0.12815 -22.02565,-1.76476 -39.23283,-3.63683 z"
       class="path"
       transform="scale(0.26458333)"
       id="path34" />
    <path
       style="fill:#1e90ff;stroke:#d10000;stroke-width:1.09632;stroke-dasharray:1.09632, 1.09632"
       d="m 379.47126,1070.5624 c -11.94226,-4.7126 -32.5342,-23.4559 -38.55006,-35.0893 -6.15314,-11.8989 -11.11896,-35.97722 -11.11896,-53.91379 0,-27.42042 8.04999,-51.80989 22.78043,-69.01911 3.86154,-4.51134 7.02098,-9.2626 7.02098,-10.55834 0,-1.29575 -1.77558,-8.30595 -3.94573,-15.57825 -10.04517,-33.6619 -15.01531,-115.47608 -13.23474,-217.8587 1.11935,-64.36198 2.71546,-96.66794 6.29887,-127.4914 l 1.19425,-10.27253 14.28079,-1.12272 c 41.16134,-3.23602 85.07229,-5.55423 86.08196,-4.54456 6.2048,6.20479 7.70144,206.21781 2.03196,271.55288 -3.7712,43.4593 -9.34357,80.48798 -14.43831,95.94345 l -3.12994,9.49499 6.90372,7.6416 c 17.29059,19.13862 25.24224,41.74064 25.24224,71.74935 0,10.44807 -1.33131,24.10773 -2.95847,30.35483 -12.00707,46.0982 -49.81708,72.3819 -84.45899,58.7116 z m 34.15868,-7.9952 c 29.59735,-8.8676 49.53914,-57.7318 41.29708,-101.19203 -2.5923,-13.66911 -11.49325,-32.70389 -19.6222,-41.96225 -8.71335,-9.92395 -24.37148,-17.42365 -36.3777,-17.42365 -43.53964,0 -70.12272,65.96182 -49.1613,121.98623 11.54094,30.8459 37.45369,46.5044 63.86412,38.5917 z"
       class="path"
       transform="scale(0.26458333)"
       id="path36" />
    <path
       style="fill:none;fill-rule:evenodd;stroke:#000000;stroke-width:0.264583"
       class="path"
       d="m 107.79311,190.68228 c -0.40064,-0.39677 0.33717,-0.73581 0.65946,-0.6659 0.87337,0.18946 1.01905,1.30625 0.67235,1.98481 -0.62017,1.21378 -2.24524,1.36353 -3.31016,0.6788 -1.56283,-1.00487 -1.71815,-3.19694 -0.68526,-4.63552 1.37669,-1.9174 4.15315,-2.07707 5.96088,-0.6917 2.27484,1.74334 2.43823,5.1115 0.69815,7.28623 -2.10747,2.63388 -6.07107,2.80068 -8.61159,0.7046 -2.99391,-2.47015 -3.16394,-7.03139 -0.71105,-9.93694 2.83196,-3.35457 7.99221,-3.52774 11.2623,-0.7175 3.71567,3.19317 3.89192,8.95339 0.72395,12.58765 -3.55398,4.07709 -9.91483,4.25638 -13.91301,0.7304 -4.438734,-3.9145 -4.621033,-10.87645 -0.73685,-15.23836 4.2748,-4.80056 11.83824,-4.98586 16.56372,-0.7433 5.16252,4.63492 5.3508,12.80013 0.74975,17.88907 -1.95065,2.1575 -4.60559,3.62238 -7.46412,4.14887"
       transform="translate(-2.2302022,18.585019)"
       id="path38" />
    <path
       style="fill:none;fill-rule:evenodd;stroke:#000000;stroke-width:0.264583"
       class="path"
       d="m 107.79311,190.68228 c -0.40064,-0.39677 0.33717,-0.73581 0.65946,-0.6659 0.87337,0.18946 1.01905,1.30625 0.67235,1.98481 -0.62017,1.21378 -2.24524,1.36353 -3.31016,0.6788 -1.56283,-1.00487 -1.71815,-3.19694 -0.68526,-4.63552 1.37669,-1.9174 4.15315,-2.07707 5.96088,-0.6917 2.27484,1.74334 2.43823,5.1115 0.69815,7.28623 -2.10747,2.63388 -6.07107,2.80068 -8.61159,0.7046 -2.99391,-2.47015 -3.16394,-7.03139 -0.71105,-9.93694 2.83196,-3.35457 7.99221,-3.52774 11.2623,-0.7175 3.71567,3.19317 3.89192,8.95339 0.72395,12.58765 -3.55398,4.07709 -9.91483,4.25638 -13.91301,0.7304 -4.438734,-3.9145 -4.621033,-10.87645 -0.73685,-15.23836 4.2748,-4.80056 11.83824,-4.98586 16.56372,-0.7433 5.16252,4.63492 5.3508,12.80013 0.74975,17.88907 -1.95065,2.1575 -4.60559,3.62238 -7.46412,4.14887"
       transform="rotate(145.78612,103.99264,199.63479)"
       id="path40" />
    <path
       style="fill:#696969;stroke:#d10000;stroke-width:1.55043;stroke-dasharray:1.55043, 1.55043"
       d="m 384.34204,1070.041 c -6.15007,-1.6863 -16.61769,-8.8111 -25.53971,-17.3838 -19.85913,-19.0814 -25.70407,-35.4366 -25.75637,-72.07063 -0.033,-23.10644 0.97259,-28.85703 7.48545,-42.80712 4.13796,-8.86324 10.66729,-20.24254 14.50963,-25.28734 l 6.98606,-9.17239 -5.30274,-22.229 c -8.77989,-36.80509 -11.89679,-85.332 -11.74642,-182.87936 0.13506,-87.61118 3.84963,-160.4617 8.39837,-164.70949 2.82433,-2.63747 90.38115,-7.12881 94.10009,-4.82699 4.3428,2.68797 7.53624,111.66905 5.60594,191.31168 -1.5319,63.20509 -3.40396,77.89585 -7.38793,57.97596 -0.963,-4.81497 -6.54457,-13.54816 -12.40349,-19.40708 -18.81103,-18.81103 -47.69636,-18.05936 -65.0387,1.69247 -10.37445,11.81585 -12.66414,20.01592 -10.38861,37.20473 1.19499,9.02669 0.87933,11.82602 -1.00723,8.93231 -1.51122,-2.31801 -2.76703,-10.67604 -2.7907,-18.57342 -0.0324,-10.80507 1.72984,-16.97131 7.12011,-24.91432 8.37388,-12.3396 7.45348,-16.482 -1.21387,-5.46324 -7.72971,9.82672 -12.46603,27.83329 -10.32417,39.2504 4.10516,21.88238 25.17704,40.60732 45.69694,40.60732 8.59885,0 11.7847,0.98584 10.40423,3.21947 -3.3636,5.44242 13.31084,-0.0933 23.39558,-7.76701 9.99817,-7.60786 14.70702,-14.95315 17.79868,-27.76405 l 2.03419,-8.42912 0.28761,8.06852 c 0.42391,11.89235 -7.72852,65.52029 -12.54641,82.53226 l -4.17411,14.73878 11.25943,14.24424 c 14.369,18.17817 19.79721,36.6636 19.79721,67.41819 0,27.87233 -4.0741,42.03023 -17.45738,60.66613 -15.62343,21.7552 -39.7969,31.8554 -61.80168,25.8219 z m 37.48125,-9.6153 c 9.83586,-5.0234 21.67144,-19.3534 28.81167,-34.8839 4.68702,-10.1946 5.82548,-18.3581 5.87744,-42.14552 0.0593,-27.16565 -0.59191,-30.79728 -8.22395,-45.85982 -14.59393,-28.80249 -36.92786,-41.9822 -60.42159,-35.65598 -22.4053,6.03311 -38.23418,27.21544 -45.07352,60.31774 -6.04692,29.26696 2.83047,67.63078 20.23735,87.45618 14.29757,16.284 39.10091,20.8282 58.7926,10.7713 z"
       class="path"
       transform="scale(0.26458333)"
       id="path42" />
    <path
       style="fill:#696969;stroke:#d10000;stroke-width:1.55043;stroke-dasharray:1.55043, 1.55043"
       d="m 380.34972,830.43491 c -4.83683,-2.10492 -9.65283,-5.21634 -10.70221,-6.91428 -2.67654,-4.33073 1.60993,-3.68621 8.09222,1.21675 6.9855,5.28357 27.649,5.31321 37.8187,0.0543 11.2443,-5.81465 18.0725,-17.69516 18.0725,-31.44467 0,-31.26731 -36.24283,-46.12993 -55.80303,-22.88396 -7.53297,8.95242 -8.45618,19.72612 -2.95782,34.5171 2.059,5.53885 2.02525,5.54122 -2.35498,0.1654 -7.11043,-8.72659 -5.72342,-27.71554 2.76093,-37.79863 18.0537,-21.4556 50.78551,-15.34991 61.51893,11.47556 5.87669,14.68728 3.91275,27.09604 -6.18849,39.10067 -13.01573,15.46831 -32.38336,20.29004 -50.25675,12.51181 z"
       class="path"
       transform="scale(0.26458333)"
       id="path44" />
    <path
       style="fill:#696969;stroke:#d10000;stroke-width:1.55043;stroke-dasharray:1.55043, 1.55043"
       d="m 387.7391,817.76866 c -3.22992,-2.19838 -1.80665,-2.8786 6.09204,-2.91158 14.26498,-0.0595 18.74688,-2.26463 23.57339,-11.59807 7.32452,-14.16407 -1.91766,-30.59051 -17.21147,-30.59051 -11.78325,0 -19.84849,16.76892 -11.89202,24.7254 4.82654,4.82654 15.39212,4.16111 17.40965,-1.09647 2.20529,-5.7469 -0.21783,-9.58041 -6.05568,-9.58041 -3.17135,0 -3.70481,-0.90586 -1.70886,-2.90181 7.04026,-7.04026 17.28084,4.77888 12.26349,14.15388 -7.48248,13.98114 -28.08994,7.02894 -28.08994,-9.47652 0,-24.39098 34.16961,-27.34774 41.99586,-3.63398 3.57015,10.81766 1.01779,20.19995 -7.60849,27.96829 -6.77759,6.10352 -22.97351,8.88566 -28.76797,4.94178 z"
       class="path"
       transform="scale(0.26458333)"
       id="path46" />
    <path
       style="fill:#696969;stroke:#d10000;stroke-width:0.274079;stroke-dasharray:0.274079, 0.274079"
       d="m 384.14497,818.0576 c -4.19623,-2.11735 -8.21537,-5.49975 -11.1027,-9.34373 -2.7549,-3.66768 -2.91878,-4.052 -1.64223,-3.85132 0.47807,0.0751 0.81038,0.47258 0.73848,0.88317 -0.12681,0.72414 0.61011,1.61457 1.61743,1.95436 0.27133,0.0915 0.43601,0.41598 0.36596,0.72101 -0.0701,0.30504 0.1959,0.82289 0.591,1.1508 0.58105,0.48222 0.86929,0.36584 1.5079,-0.60879 0.73683,-1.12455 0.61813,-2.83502 -0.19674,-2.83502 -0.19843,0 -0.36077,-0.67799 -0.36077,-1.50663 0,-0.82865 0.14156,-1.33154 0.31458,-1.11755 0.17302,0.21399 1.13533,1.42487 2.13846,2.69085 2.11842,2.67349 6.34611,5.62636 9.79364,6.84045 2.13999,0.75363 2.30785,0.91376 1.49191,1.42332 -0.65704,0.41033 -0.97118,0.41873 -1.10093,0.0295 -0.10778,-0.32335 -0.62677,-0.40339 -1.27715,-0.19697 -0.85134,0.27021 -1.09558,0.73055 -1.09558,2.06497 0,1.3747 0.24769,1.81141 1.24172,2.18934 0.68295,0.25966 1.24173,0.58939 1.24173,0.73274 0,0.60194 -1.51233,0.16935 -4.26671,-1.22047 z"
       class="path"
       transform="scale(0.26458333)"
       id="path48" />
    <path
       style="fill:#696969;stroke:#d10000;stroke-width:0.274079;stroke-dasharray:0.274079, 0.274079"
       d="m 406.412,839.16892 c 0.23651,-1.23727 -0.70658,-1.96895 -2.11689,-1.64234 -0.33561,0.0777 -0.70267,-0.10813 -0.81568,-0.41301 -0.12482,-0.33673 0.75721,-0.68203 2.24698,-0.87965 5.97513,-0.79263 13.98492,-4.32319 19.87185,-8.75913 20.83559,-15.70008 23.32926,-45.47756 5.35809,-63.98215 -5.4298,-5.59097 -11.58229,-9.13995 -19.17237,-11.05932 -6.03346,-1.52573 -15.46016,-1.19592 -21.1372,0.73952 -11.77843,4.01557 -20.83045,12.90332 -24.45283,24.0091 -0.92729,2.84295 -1.32409,5.32627 -1.50239,9.40256 -0.30846,7.05197 0.6309,11.50935 3.73266,17.71193 1.85453,3.70848 3.07986,5.35772 6.54038,8.80299 6.70278,6.67326 13.74677,9.62277 22.88419,9.58225 14.25054,-0.0632 26.17932,-8.8782 30.05488,-22.20965 1.19526,-4.11156 1.09603,-11.52855 -0.21009,-15.70162 -4.28502,-13.69084 -18.10428,-21.98645 -31.02142,-18.62197 -9.48434,2.47036 -16.25678,9.60982 -17.83043,18.79672 -1.50837,8.80581 3.0826,17.91081 10.9962,21.80812 2.99277,1.47389 3.66862,1.60991 7.99919,1.60991 4.09317,0 5.11288,-0.17935 7.57146,-1.33167 6.16441,-2.88923 9.6173,-8.53694 9.20684,-15.0591 -0.42318,-6.72413 -4.73808,-11.62848 -10.98406,-12.48459 -5.49876,-0.75369 -11.1955,3.77556 -11.23525,8.93269 -0.0247,3.20352 3.00806,6.77367 5.75822,6.77853 2.96833,0.005 4.9661,-4.18719 2.55043,-5.35222 -1.10334,-0.53212 -1.10054,-0.5394 0.22018,-0.57259 1.6326,-0.041 2.88711,1.56282 2.87681,3.6779 -0.0294,6.03149 -8.21279,8.42927 -13.07628,3.83141 -2.27679,-2.15244 -3.30717,-4.65606 -3.30717,-8.03578 0,-3.67329 0.95184,-6.10125 3.37691,-8.61383 2.75677,-2.85625 5.22049,-3.93776 9.53703,-4.1865 6.89328,-0.39722 12.37862,2.86246 15.50332,9.21291 1.50451,3.0577 1.63124,3.68839 1.61653,8.04507 -0.0172,5.08362 -0.77405,7.52647 -3.60824,11.64563 -3.24973,4.72308 -10.46739,8.2307 -16.9364,8.2307 -18.68204,0 -29.6627,-20.41292 -20.17232,-37.50011 4.70514,-8.47148 13.95907,-13.77321 24.0938,-13.80371 5.67278,-0.0171 9.73506,0.95419 14.53063,3.47419 6.77182,3.55849 12.41309,10.25727 14.8159,17.59327 1.04469,3.18953 1.19658,4.56297 1.17411,10.6171 -0.0231,6.21342 -0.16474,7.34148 -1.33084,10.59684 -1.89385,5.28698 -4.11489,8.75301 -8.32881,12.99749 -6.66606,6.71438 -15.1364,10.11411 -25.08285,10.06748 -14.47526,-0.0679 -26.85702,-7.79294 -33.25471,-20.74787 -3.22861,-6.53775 -3.93932,-9.69632 -3.96751,-17.6325 -0.0271,-7.62802 0.91809,-11.93973 3.97414,-18.12919 10.81819,-21.91028 38.87102,-29.65315 60.76844,-16.77273 3.96888,2.33456 10.35952,8.27841 13.18533,12.2635 13.02119,18.36308 10.96131,43.83224 -4.87749,60.3075 -5.42083,5.63866 -12.82554,10.26036 -20.37003,12.71412 -5.07213,1.64965 -5.96186,1.65622 -5.65324,0.0418 z"
       class="path"
       transform="scale(0.26458333)"
       id="path50" />
    <path
       style="fill:#696969;stroke:#d10000;stroke-width:0.274079;stroke-dasharray:0.274079, 0.274079"
       d="m 398.38469,789.94426 c 0.0238,-0.57862 0.14153,-0.69631 0.30009,-0.30009 0.14348,0.35855 0.12583,0.78695 -0.0392,0.95199 -0.16505,0.16505 -0.28244,-0.12831 -0.26088,-0.6519 z"
       class="path"
       transform="scale(0.26458333)"
       id="path52" />
    <path
       style="fill:#696969;stroke:#d10000;stroke-width:0.274079;stroke-dasharray:0.274079, 0.274079"
       d="m 395.91703,792.43916 c -2.10278,-1.76938 -2.48913,-4.17523 -1.12228,-6.98861 0.5799,-1.19362 1.28268,-2.17022 1.56172,-2.17022 0.32046,0 0.2949,0.34021 -0.0694,0.92355 -0.464,0.74297 -0.39199,1.17693 0.3683,2.21949 0.51979,0.71278 1.37086,1.30298 1.89127,1.31156 0.88512,0.0146 0.89313,0.0742 0.12417,0.92393 -0.45211,0.49957 -0.82202,1.28186 -0.82202,1.73841 0,1.10944 1.47918,1.07161 1.52928,-0.0391 0.0234,-0.51887 0.25115,-0.28608 0.56504,0.57756 0.44009,1.21088 0.37773,1.55504 -0.38249,2.11093 -1.28921,0.94269 -1.92785,0.83621 -3.64359,-0.60749 z"
       class="path"
       transform="scale(0.26458333)"
       id="path54" />
    <path
       style="fill:#696969;stroke:#d10000;stroke-width:0.274079;stroke-dasharray:0.274079, 0.274079"
       d="m 450.22654,804.00433 c -0.28586,-0.61744 -0.46266,-2.38338 -0.39287,-3.92432 0.0877,-1.93666 -0.0724,-2.87818 -0.51867,-3.04942 -1.16119,-0.44559 -1.95295,0.46225 -1.60661,1.84217 0.17877,0.71227 0.15134,1.29503 -0.061,1.29503 -0.21229,0 -0.38598,-3.14627 -0.38598,-6.99171 v -6.99172 l 1.32497,0.265 c 1.47493,0.29499 2.01396,-0.43494 1.57128,-2.12774 -0.16851,-0.64437 -0.0372,-1.04129 0.3444,-1.04129 0.42033,0 0.52181,-0.47448 0.31869,-1.49007 -0.18552,-0.9276 -0.0933,-1.49007 0.24416,-1.49007 0.32313,0 0.4371,-0.54972 0.28208,-1.36061 -0.14305,-0.74834 -0.0343,-1.78256 0.24173,-2.29827 0.36696,-0.68567 0.32118,-1.05417 -0.17033,-1.37119 -0.56295,-0.3631 -0.56036,-0.50555 0.0159,-0.8769 0.45687,-0.29439 0.57801,-0.88197 0.36049,-1.74861 -0.18017,-0.71787 -0.10913,-1.71342 0.15788,-2.21232 0.33457,-0.62516 0.29971,-1.10443 -0.11216,-1.54197 -0.46623,-0.4953 -0.46112,-0.68491 0.0232,-0.86251 0.77154,-0.2829 0.82649,-2.13163 0.0634,-2.13163 -0.38607,0 -0.36804,-0.22829 0.0586,-0.74239 0.33887,-0.40832 0.48947,-1.22674 0.33466,-1.81872 -0.1548,-0.59198 -0.0374,-1.53241 0.26095,-2.08984 0.39796,-0.74359 0.39117,-1.06392 -0.0255,-1.20281 -0.69807,-0.23269 -0.75892,-1.5966 -0.0712,-1.5966 0.71857,0 0.61159,-1.85735 -0.12418,-2.1559 -0.47506,-0.19276 -0.48226,-0.35071 -0.0307,-0.67261 0.36477,-0.26001 0.53761,-1.46013 0.45252,-3.14212 -0.0757,-1.4968 0.0729,-3.14101 0.3303,-3.65382 0.32989,-0.65726 0.26965,-1.07144 -0.20417,-1.40371 -0.52304,-0.36677 -0.53441,-0.52722 -0.0513,-0.72326 0.80603,-0.32706 0.80603,-2.49467 0,-2.82173 -0.45729,-0.18555 -0.47157,-0.36004 -0.0542,-0.66225 0.36105,-0.26145 0.5337,-1.94216 0.47583,-4.6322 -0.0499,-2.32203 0.12863,-4.59486 0.39684,-5.05074 0.34441,-0.58539 0.27758,-1.08331 -0.22749,-1.69502 -0.55056,-0.6668 -0.57226,-0.91423 -0.0943,-1.0751 0.80464,-0.27082 0.80464,-1.9444 0,-2.3199 -0.49669,-0.23179 -0.49669,-0.34768 0,-0.57947 0.80407,-0.37523 0.80407,-2.03659 0,-2.36286 -0.45122,-0.18308 -0.46822,-0.36403 -0.0622,-0.66225 0.36816,-0.27042 0.53419,-2.485 0.48695,-6.49478 -0.0527,-4.47031 0.0878,-6.08446 0.5296,-6.08446 0.33071,0 0.73943,0.22351 0.90826,0.49669 0.16884,0.27318 0.1048,0.49669 -0.14229,0.49669 -0.25697,0 -0.4235,5.04908 -0.38908,11.79639 0.0331,6.48802 -0.14055,12.07578 -0.3859,12.41726 -0.27757,0.38632 -0.21251,0.9023 0.17224,1.36589 0.34249,0.41269 0.39746,0.74504 0.12322,0.74504 -0.31037,0 -0.47206,2.87253 -0.43334,7.69876 0.034,4.23432 -0.0836,7.69874 -0.26121,7.6987 -0.17764,-4e-5 -0.28939,2.90559 -0.24834,6.45695 0.041,3.55136 -0.0628,6.457 -0.23085,6.45698 -0.16801,-3e-5 -0.27977,2.45863 -0.24834,5.46368 0.0314,3.00505 -0.0814,5.46366 -0.25074,5.46359 -0.16932,-8e-5 -0.28108,2.01153 -0.24834,4.47023 0.0327,2.45871 -0.0925,4.47031 -0.27818,4.47021 -0.18574,-8e-5 -0.2877,1.45266 -0.22659,3.22833 0.0611,1.77566 -0.0492,3.22848 -0.24514,3.22848 -0.19593,0 -0.38054,1.06168 -0.41024,2.35928 -0.13891,6.06858 -0.29027,8.56739 -0.51875,8.56393 -0.13658,-0.002 -0.48223,-0.50895 -0.76809,-1.12639 z"
       class="path"
       transform="scale(0.26458333)"
       id="path56" />
    <path
       style="fill:#696969;stroke:#d10000;stroke-width:0.274079;stroke-dasharray:0.274079, 0.274079"
       d="m 365.99853,822.14633 c -3.34936,-3.49671 -5.58598,-6.43341 -7.8484,-10.30499 -2.0888,-3.57447 -2.50988,-4.74865 -1.36102,-3.79517 0.50599,0.41992 0.91627,0.25755 1.73842,-0.688 1.20282,-1.38336 1.38874,-2.53318 0.45969,-2.84286 -0.45444,-0.15148 -0.40889,-0.41301 0.17334,-0.99524 0.72189,-0.72188 0.88531,-0.55923 1.90156,1.89266 1.61013,3.88474 4.66572,8.40181 8.10923,11.98787 1.83257,1.90843 2.70144,3.13149 2.22464,3.13149 -0.43031,0 -0.86676,-0.25317 -0.96991,-0.5626 -0.10816,-0.3245 -0.61724,-0.42621 -1.20288,-0.24034 -0.76575,0.24304 -1.00099,0.71711 -0.95693,1.9285 0.0321,0.88343 0.23272,1.88562 0.44577,2.2271 0.88343,1.41598 -0.60608,0.46173 -2.71351,-1.73842 z"
       class="path"
       transform="scale(0.26458333)"
       id="path58" />
    <path
       style="fill:#696969;stroke:#d10000;stroke-width:0.274079;stroke-dasharray:0.274079, 0.274079"
       d=""
       class="path"
       transform="scale(0.26458333)"
       id="path60" />
    <path
       style="fill:#696969;stroke:#d10000;stroke-width:0.274079;stroke-dasharray:0.274079, 0.274079"
       d=""
       class="path"
       transform="scale(0.26458333)"
       id="path62" />
    <path
       style="fill:#696969;stroke:#d10000;stroke-width:0.274079;stroke-dasharray:0.274079, 0.274079"
       d="m 353.22724,799.78282 c -2.42025,-11.08403 -1.75141,-20.28191 2.17518,-29.91312 2.4623,-6.03958 7.47302,-13.55269 8.22607,-12.33423 0.26879,0.43492 0.0778,0.77605 -0.56827,1.01505 -0.62339,0.23061 -0.97312,0.82253 -0.97312,1.64703 0,0.70787 -0.21229,1.15583 -0.47177,0.99547 -0.55762,-0.34463 -1.46999,1.22777 -1.17922,2.03229 0.11085,0.30669 -0.25462,0.67691 -0.81215,0.82271 -0.59638,0.15596 -1.01369,0.67613 -1.01369,1.26357 0,0.54917 -0.25758,1.08435 -0.57241,1.1893 -0.31482,0.10494 -0.60659,0.65481 -0.64837,1.22193 -0.0418,0.56712 -0.46232,1.41748 -0.93452,1.88968 -0.48395,0.48395 -0.73639,1.24349 -0.57855,1.74078 0.17427,0.54908 -0.0268,0.99997 -0.53252,1.19402 -0.58263,0.22358 -0.72467,0.66181 -0.50203,1.54889 0.19537,0.77838 0.0998,1.2371 -0.25774,1.2371 -0.36648,0 -0.46243,0.52907 -0.27023,1.49007 0.18664,0.93317 0.0938,1.49007 -0.24834,1.49007 -0.34217,0 -0.43498,0.55689 -0.24835,1.49007 0.16811,0.84055 0.0869,1.49007 -0.18626,1.49007 -0.65022,0 -0.62028,1.84408 0.0365,2.25001 0.3192,0.19728 0.34643,0.5451 0.0704,0.89852 -0.57836,0.74039 -0.6075,8.27534 -0.032,8.27534 0.64263,0 0.52738,1.37623 -0.1337,1.5966 -0.41667,0.13888 -0.42346,0.45922 -0.0255,1.20281 0.29832,0.55743 0.41008,1.51955 0.24834,2.13803 -0.16174,0.61849 -0.0453,1.27827 0.25875,1.46619 0.35948,0.22217 0.41167,0.85581 0.14922,1.81175 -0.38851,1.41508 -0.42502,1.37205 -0.97572,-1.15 z"
       class="path"
       transform="scale(0.26458333)"
       id="path64" />
    <path
       style="fill:#696969;stroke:#d10000;stroke-width:0.274079;stroke-dasharray:0.274079, 0.274079"
       d="m 366.89571,796.08614 c -1.04391,-4.15584 -1.07446,-11.4703 -0.0659,-15.78595 2.29876,-9.83676 10.46291,-19.56654 20.23613,-24.11679 2.88043,-1.34109 4.0174,-1.52347 3.70027,-0.59354 -0.11645,0.34147 -0.69538,0.55067 -1.2865,0.46489 -0.64117,-0.093 -1.19946,0.16895 -1.38383,0.64941 -0.16998,0.44295 -0.62054,0.68584 -1.00126,0.53975 -0.38071,-0.14609 -1.13415,0.17633 -1.67432,0.71649 -0.54016,0.54016 -1.30951,0.98211 -1.70967,0.98211 -0.40016,0 -0.97015,0.45328 -1.26665,1.0073 -0.2965,0.55401 -0.70617,0.90402 -0.9104,0.7778 -0.55105,-0.34057 -1.81395,0.56527 -1.81395,1.3011 0,0.35144 -0.33526,0.63898 -0.74503,0.63898 -0.40977,0 -0.94972,0.46585 -1.19989,1.03522 -0.25016,0.56937 -0.92069,1.24809 -1.49007,1.50825 -0.56937,0.26017 -0.97293,0.76348 -0.89679,1.11848 0.0761,0.355 -0.31501,0.76404 -0.86921,0.90896 -0.96095,0.2513 -1.20695,0.70454 -1.05849,1.95021 0.0368,0.30847 -0.4133,0.68641 -1.00014,0.83987 -0.78585,0.2055 -0.99651,0.54848 -0.79952,1.30174 0.16867,0.64501 0.0291,1.02273 -0.37795,1.02273 -0.75643,0 -1.38513,1.36363 -0.95189,2.06463 0.16483,0.2667 -0.0943,0.77299 -0.57579,1.12507 -0.54892,0.40139 -0.75327,0.95862 -0.54785,1.49393 0.18964,0.49419 0.007,1.17405 -0.43285,1.61424 -0.43614,0.43614 -0.63309,1.1618 -0.46179,1.70151 0.1797,0.5662 0.0616,0.94104 -0.29647,0.94104 -0.40278,0 -0.50397,0.56191 -0.31305,1.73841 0.15516,0.95613 0.10756,1.73842 -0.10578,1.73842 -0.21334,0 -0.39683,1.89698 -0.40776,4.21551 -0.0109,2.31979 0.17755,4.09351 0.41912,3.94421 0.24144,-0.14922 0.43898,0.0771 0.43898,0.50304 0,0.4259 -0.21649,0.77435 -0.4811,0.77435 -0.52146,0 -0.0884,1.56892 0.55396,2.00675 0.21651,0.14758 0.21746,0.92714 0.002,1.73236 -0.3635,1.35918 -0.45136,1.22593 -1.22664,-1.86048 z"
       class="path"
       transform="scale(0.26458333)"
       id="path66" />
    <path
       style="fill:#696969;stroke:#d10000;stroke-width:0.274079;stroke-dasharray:0.274079, 0.274079"
       d="m 392.96535,818.65048 c -0.98153,-0.6585 -1.22376,-0.67109 -1.58752,-0.0825 -0.35304,0.57122 -0.48754,0.54268 -0.75747,-0.16074 -0.18051,-0.4704 -0.64899,-0.85528 -1.04106,-0.85528 -0.39207,0 -1.00514,-0.27303 -1.36237,-0.60673 -0.53331,-0.49819 -0.51448,-0.74175 0.10523,-1.36147 0.56374,-0.56374 0.80673,-0.59874 0.9602,-0.1383 0.26707,0.8012 1.94195,0.79799 2.31641,-0.004 0.23179,-0.49669 0.34769,-0.49669 0.57948,0 0.32207,0.69014 2.19371,0.8623 2.19371,0.20177 0,-0.2305 1.39494,-0.36035 3.09986,-0.28857 1.93815,0.0816 3.2553,-0.0871 3.51464,-0.45012 0.3126,-0.4376 0.47685,-0.42769 0.66671,0.0402 0.34538,0.85119 1.15883,0.77817 2.24097,-0.20115 0.54345,-0.49182 0.90831,-0.59158 0.90831,-0.24834 0,0.79617 0.77942,0.71667 1.66604,-0.16994 0.40898,-0.40898 1.08171,-0.61386 1.49496,-0.45529 0.42482,0.16302 1.12692,-0.15032 1.61557,-0.72102 0.47532,-0.55513 1.05765,-0.88979 1.29407,-0.74367 0.57771,0.35704 1.93713,-0.80985 1.5927,-1.36714 -0.15002,-0.24274 0.29947,-0.6589 0.99885,-0.92481 0.75116,-0.28559 1.27162,-0.87136 1.27162,-1.43121 0,-0.54929 0.44476,-1.06405 1.05789,-1.22439 0.70153,-0.18345 0.95873,-0.53504 0.76353,-1.04373 -0.18187,-0.47395 0.0961,-0.97605 0.72733,-1.31388 0.63766,-0.34127 0.9339,-0.88253 0.78812,-1.43999 -0.13146,-0.5027 0.18583,-1.2523 0.72576,-1.7146 0.62568,-0.53573 0.85174,-1.1604 0.64998,-1.79608 -0.17014,-0.53607 -0.0968,-0.97467 0.16289,-0.97467 0.70708,0 1.06709,-1.90292 0.41119,-2.17347 -0.39589,-0.1633 -0.35952,-0.38024 0.11995,-0.71554 0.44601,-0.3119 0.57642,-0.9261 0.37069,-1.74579 -0.17456,-0.69553 -0.1016,-1.39796 0.16215,-1.56097 0.29551,-0.18263 0.3087,-0.74568 0.0344,-1.4672 -0.24483,-0.64396 -0.33251,-1.60158 -0.19483,-2.12805 0.13767,-0.52646 -0.0774,-1.2292 -0.47798,-1.56164 -0.4167,-0.34582 -0.6135,-1.04337 -0.46,-1.63038 0.15499,-0.59268 -0.0222,-1.20547 -0.41945,-1.45101 -0.37826,-0.23378 -0.71153,-0.7138 -0.7406,-1.06671 -0.13628,-1.65413 -0.25447,-1.88339 -0.97098,-1.88339 -0.42175,0 -0.73053,-0.27939 -0.68619,-0.62086 0.17084,-1.31558 -0.0749,-1.75663 -1.13294,-2.03331 -0.60272,-0.15761 -0.93993,-0.4425 -0.74934,-0.63309 0.53293,-0.53293 -0.64253,-1.67964 -1.72176,-1.67964 -0.52903,0 -0.83939,-0.19819 -0.68968,-0.44041 0.31468,-0.50917 -0.89567,-1.65011 -1.52718,-1.43961 -0.23364,0.0779 -0.46065,-0.0618 -0.50447,-0.31044 -0.11953,-0.67821 -1.5963,-1.38359 -2.16318,-1.03324 -0.27311,0.16879 -0.86225,-0.0588 -1.30919,-0.50573 -0.51766,-0.51766 -1.23744,-0.70601 -1.98295,-0.5189 -0.64368,0.16155 -1.17033,0.0862 -1.17033,-0.16754 0,-0.59369 -4.53541,-0.5628 -5.2952,0.0361 -0.35123,0.27685 -0.6912,0.26916 -0.8697,-0.0197 -0.33651,-0.54449 -2.27883,-0.16019 -2.27883,0.45089 0,0.22317 -0.61465,0.47649 -1.3659,0.56293 -0.79955,0.092 -1.37526,0.46608 -1.38847,0.9022 -0.0124,0.40977 -0.31533,0.68131 -0.67315,0.60343 -0.83653,-0.18207 -2.10881,0.8638 -1.75237,1.44054 0.15002,0.24273 -0.32218,0.66754 -1.04934,0.944 -0.86295,0.32809 -1.22474,0.75638 -1.04176,1.23322 0.16327,0.42548 -0.12677,0.94843 -0.69455,1.2523 -0.54555,0.29197 -0.97488,1.03749 -0.97488,1.69285 0,0.64411 -0.35897,1.30886 -0.79772,1.47722 -0.56789,0.21792 -0.70827,0.66253 -0.48723,1.54321 0.19536,0.77838 0.0998,1.2371 -0.25775,1.2371 -0.36647,0 -0.46242,0.52908 -0.27022,1.49007 0.16811,0.84055 0.0869,1.49007 -0.18626,1.49007 -0.26635,0 -0.48427,0.44702 -0.48427,0.99338 0,0.54636 0.24774,0.99338 0.55053,0.99338 0.33485,0 0.43197,0.47241 0.2479,1.2058 -0.19608,0.78124 -0.0193,1.48911 0.50198,2.01042 0.44253,0.44253 0.67411,0.93511 0.51461,1.09461 -0.45232,0.45231 0.66005,2.20995 1.19097,1.88182 0.25998,-0.16068 0.6989,0.3028 0.97536,1.02996 0.32809,0.86295 0.75638,1.22475 1.23322,1.04177 0.43129,-0.16551 0.95454,0.13818 1.27735,0.74135 0.37422,0.69924 0.86739,0.93785 1.56263,0.75604 0.55871,-0.1461 1.33783,0.0563 1.73137,0.44989 0.82871,0.82871 1.63795,0.93683 1.63795,0.21883 0,-0.27318 0.33527,-0.49669 0.74504,-0.49669 0.40977,0 0.74503,0.22351 0.74503,0.49669 0,0.27318 0.44702,0.49669 0.99338,0.49669 0.54636,0 0.99338,-0.22776 0.99338,-0.50615 0,-0.29743 0.53403,-0.37212 1.29504,-0.18112 0.85621,0.2149 1.43823,0.0933 1.71761,-0.35871 0.23242,-0.37606 0.71133,-0.70753 1.06424,-0.73661 1.78987,-0.14745 1.97176,-0.25085 1.69768,-0.9651 -0.1958,-0.51023 0.13111,-0.9218 0.99221,-1.24919 1.05177,-0.39989 1.22814,-0.71166 0.97443,-1.72252 -0.17038,-0.67884 -0.1,-1.23426 0.1564,-1.23426 0.2564,0 0.42608,-1.10954 0.37707,-2.46566 -0.0654,-1.80999 -0.35197,-2.66431 -1.07758,-3.21269 -0.54366,-0.41086 -0.79347,-0.75413 -0.55514,-0.76282 0.23834,-0.009 0.1509,-0.35611 -0.19429,-0.77205 -0.3452,-0.41594 -1.01663,-0.63279 -1.49207,-0.48189 -0.51491,0.16343 -0.98233,-0.0329 -1.15601,-0.48547 -0.31152,-0.81181 -1.81283,-1.06547 -1.81283,-0.30629 0,0.25424 -0.62481,0.2177 -1.42183,-0.0831 -1.02475,-0.3868 -1.35535,-0.79089 -1.18379,-1.44693 0.13092,-0.50063 0.55424,-0.91024 0.94072,-0.91024 0.38649,0 0.82766,-0.32563 0.98038,-0.72363 0.19407,-0.50575 0.71282,-0.63661 1.72283,-0.43461 1.03167,0.20634 1.44966,0.0936 1.46094,-0.39392 0.0109,-0.46887 0.23691,-0.39095 0.72117,0.24856 0.41554,0.54875 1.02785,0.80776 1.49018,0.63035 0.53414,-0.20497 0.93442,0.0924 1.25329,0.93108 0.25767,0.67773 0.84655,1.23224 1.30861,1.23224 0.46206,0 0.69896,0.14114 0.52646,0.31365 -0.49594,0.49594 0.63572,2.23402 1.2196,1.87317 0.33645,-0.20794 0.41063,0.0358 0.20656,0.67878 -0.20015,0.63064 -0.006,1.31614 0.52403,1.84569 0.71006,0.71006 0.73222,0.91104 0.14103,1.27891 -0.59155,0.3681 -0.597,0.60485 -0.0348,1.51156 0.52427,0.8455 0.53558,1.15611 0.0529,1.45439 -0.33836,0.20911 -0.49042,0.8507 -0.33893,1.43 0.19004,0.7267 -0.0296,1.21364 -0.71233,1.57901 -0.5516,0.29521 -0.8687,0.83683 -0.71873,1.22764 0.14939,0.38931 -0.16383,0.93068 -0.70651,1.22111 -0.53619,0.28696 -0.97489,0.82492 -0.97489,1.19546 0,0.37054 -0.55877,0.81396 -1.24172,0.98537 -0.68295,0.17141 -1.24173,0.63564 -1.24173,1.03163 0,0.40584 -0.29714,0.60596 -0.68099,0.45867 -0.37455,-0.14373 -1.01583,0.0735 -1.42509,0.48277 -0.44611,0.44611 -1.18828,0.62793 -1.85329,0.45403 -0.62004,-0.16214 -1.26925,-0.0311 -1.4721,0.2971 -0.25925,0.41948 -0.73174,0.44692 -1.65447,0.0961 -0.93258,-0.35456 -1.3464,-0.32663 -1.48878,0.10049 -0.13437,0.40313 -0.47799,0.31074 -1.07881,-0.29008 -0.56217,-0.56217 -1.24516,-0.76625 -1.88488,-0.56322 -0.61368,0.19478 -0.88376,0.1251 -0.69555,-0.17944 0.34676,-0.56107 -1.03493,-1.24486 -1.69326,-0.83799 -0.23482,0.14513 -0.66954,-0.18941 -0.96604,-0.74342 -0.29649,-0.55401 -0.97122,-1.0073 -1.4994,-1.0073 -0.61869,0 -0.86547,-0.24716 -0.6937,-0.69479 0.26177,-0.68215 -0.56066,-1.5069 -1.53952,-1.54385 -0.27318,-0.0103 -0.43262,-0.39787 -0.35432,-0.86124 0.0783,-0.46337 -0.28276,-1.10799 -0.80238,-1.4325 -0.56918,-0.35546 -0.85019,-0.95159 -0.70688,-1.4996 0.14049,-0.53724 -0.0814,-1.03214 -0.54211,-1.20891 -0.56429,-0.21654 -0.70006,-0.69895 -0.49096,-1.74446 0.15897,-0.79482 0.0884,-1.44514 -0.15686,-1.44514 -0.24524,0 -0.44589,-0.89404 -0.44589,-1.98676 0,-1.09272 0.17271,-1.98676 0.3838,-1.98676 0.65562,0 0.42054,-1.98583 -0.23705,-2.00256 -0.35982,-0.009 -0.23009,-0.31173 0.30856,-0.71965 0.65689,-0.49746 0.83998,-1.06021 0.62439,-1.91918 -0.20874,-0.8317 -0.071,-1.30514 0.43648,-1.49986 0.40782,-0.1565 0.7415,-0.71467 0.7415,-1.24037 0,-0.52571 0.33526,-1.08448 0.74503,-1.24173 0.40977,-0.15724 0.74504,-0.71386 0.74504,-1.23693 0,-0.55266 0.44314,-1.06693 1.05789,-1.22769 0.66721,-0.17448 0.95587,-0.5425 0.78164,-0.99654 -0.19071,-0.49697 0.17384,-0.80992 1.17721,-1.01059 0.86566,-0.17314 1.45347,-0.60583 1.45347,-1.06992 0,-0.42858 0.27939,-0.74295 0.62086,-0.69861 1.31937,0.17133 1.86259,-0.0665 1.86259,-0.81558 0,-0.53804 0.29067,-0.68625 0.94104,-0.47983 0.53157,0.16871 1.25973,-0.02 1.67343,-0.43371 0.43605,-0.43605 1.18121,-0.61502 1.8416,-0.44233 0.67196,0.17573 1.29986,0.0172 1.59287,-0.40202 0.35624,-0.50976 0.54784,-0.53508 0.72729,-0.0961 0.17194,0.4206 0.60413,0.45892 1.46868,0.13022 0.84206,-0.32015 1.55077,-0.27356 2.2669,0.14905 0.83862,0.49488 1.08769,0.48778 1.27681,-0.0364 0.18232,-0.50531 0.44186,-0.46399 1.15834,0.18441 0.50817,0.45989 1.28329,0.69752 1.7238,0.52848 0.44025,-0.16894 1.11517,0.008 1.49984,0.39223 0.38466,0.38467 1.15986,0.57898 1.72266,0.43181 0.68624,-0.17946 0.97541,-0.0513 0.87795,0.38911 -0.0841,0.38011 0.48228,0.8005 1.34474,0.99808 0.81954,0.18775 1.29507,0.36781 1.05674,0.40013 -0.23834,0.0323 -0.14891,0.40148 0.19871,0.82034 0.34763,0.41887 0.87615,0.68022 1.17449,0.58077 0.29834,-0.0994 0.77429,0.28425 1.05767,0.85267 0.28339,0.56841 0.84391,1.03347 1.24562,1.03347 0.4017,0 0.7583,0.27939 0.79245,0.62087 0.0341,0.34147 0.09,0.8183 0.12417,1.05962 0.0342,0.24132 0.5316,0.56154 1.10544,0.7116 0.57385,0.15007 0.89702,0.50963 0.71815,0.79903 -0.37912,0.61344 0.35367,2.12329 1.01494,2.09121 0.24862,-0.0121 0.38186,0.41645 0.29608,0.95226 -0.086,0.53717 0.19093,1.10731 0.61732,1.27094 0.53217,0.20421 0.68054,0.66634 0.47581,1.48205 -0.20507,0.81706 -0.0563,1.27787 0.47882,1.48321 0.56047,0.21508 0.69595,0.6997 0.48728,1.74305 -0.15896,0.79483 -0.0921,1.44514 0.14855,1.44514 0.5324,0 0.53387,6.48128 0.002,7.3424 -0.20855,0.33744 -0.23794,1.05855 -0.0653,1.60247 0.18802,0.59232 0.087,0.98893 -0.25181,0.98893 -0.31114,0 -0.49726,0.5223 -0.41361,1.16066 0.0837,0.63836 -0.22612,1.53887 -0.68838,2.00113 -0.46227,0.46227 -0.71431,1.16928 -0.5601,1.57114 0.17509,0.45629 -0.0194,0.73067 -0.5178,0.73067 -0.76158,0 -0.8835,0.19743 -0.99685,1.61424 -0.0273,0.34147 -0.49669,0.85677 -1.04305,1.14511 -0.54636,0.28834 -0.93966,0.85092 -0.874,1.25019 0.0657,0.39926 -0.38137,0.94563 -0.99338,1.21416 -0.61202,0.26853 -1.11777,0.8235 -1.12391,1.23327 -0.007,0.44156 -0.37633,0.68198 -0.9077,0.59025 -0.56623,-0.0978 -0.99521,0.22249 -1.16433,0.8692 -0.15284,0.58444 -0.67602,1.024 -1.21882,1.024 -0.52307,0 -1.06897,0.30732 -1.21311,0.68295 -0.14414,0.37562 -0.83902,0.68295 -1.54417,0.68295 -0.70515,0 -1.48016,0.35392 -1.72223,0.78649 -0.26003,0.46465 -0.76904,0.66028 -1.24387,0.47807 -0.47428,-0.18199 -1.06013,0.0422 -1.42925,0.54704 -0.34866,0.47681 -0.75678,0.6431 -0.92205,0.37568 -0.16309,-0.26388 -0.74081,-0.3636 -1.28383,-0.2216 -0.54301,0.142 -0.85605,0.47054 -0.69564,0.73009 0.17836,0.28859 -0.43049,0.33642 -1.56746,0.12313 -1.42118,-0.26662 -1.76906,-0.20307 -1.47683,0.26977 0.29028,0.46968 -0.006,0.53322 -1.23197,0.264 -1.1279,-0.24773 -1.7566,-0.15149 -2.08671,0.31941 -0.36731,0.52396 -0.52852,0.53577 -0.72438,0.0531 -0.28758,-0.70875 -1.98886,-0.84536 -2.23868,-0.17975 -0.0911,0.24261 -0.68678,0.0914 -1.32383,-0.33596 z"
       class="path"
       transform="scale(0.26458333)"
       id="path68" />
    <path
       style="fill:#696969;stroke:#d10000;stroke-width:0.274079;stroke-dasharray:0.274079, 0.274079"
       d=""
       class="path"
       transform="scale(0.26458333)"
       id="path70" />
    <path
       style="fill:#696969;stroke:#d10000;stroke-width:0.274079;stroke-dasharray:0.274079, 0.274079"
       d="m 392.19866,806.12917 c -3.60144,-1.40661 -6.12388,-3.34962 -8.30777,-6.39939 -3.47011,-4.84595 -4.6752,-10.85738 -3.24777,-16.20111 0.93367,-3.49526 2.79612,-7.02125 3.28815,-6.22513 0.23358,0.37794 0.0198,1.00033 -0.53385,1.55394 -0.50792,0.50792 -0.79289,1.26382 -0.63327,1.67979 0.15962,0.41596 0.0689,0.7563 -0.20168,0.7563 -0.74635,0 -1.06561,1.82692 -0.43029,2.46225 0.39162,0.39162 0.40076,0.66472 0.0305,0.91109 -0.85244,0.5672 -1.1962,2.00211 -0.55258,2.30651 0.45114,0.21336 0.44447,0.34973 -0.0279,0.57017 -0.71796,0.33504 -0.84962,2.19371 -0.1554,2.19371 0.256,0 0.33852,0.78229 0.18336,1.73842 -0.19092,1.1765 -0.0897,1.73841 0.31304,1.73841 0.35808,0 0.47618,0.37485 0.29647,0.94105 -0.18032,0.56814 0.0493,1.28899 0.57943,1.81914 0.48296,0.48296 0.90352,1.12116 0.93459,1.41824 0.0311,0.29707 0.0905,0.81952 0.13213,1.16099 0.0416,0.34148 0.35792,0.62086 0.70291,0.62086 0.34499,0 0.84789,0.5029 1.11756,1.11756 0.26966,0.61465 0.76968,1.11755 1.11116,1.11755 0.34147,0 0.56498,0.13328 0.49669,0.29618 -0.24923,0.59447 1.29529,1.977 1.93458,1.73168 0.36184,-0.13885 0.89375,0.18826 1.18202,0.72691 0.37839,0.70701 0.8452,0.89878 1.67868,0.68959 0.80851,-0.20293 1.25053,-0.0396 1.47482,0.5449 0.23204,0.60467 0.66118,0.74911 1.55739,0.52417 0.71215,-0.17874 1.2371,-0.0957 1.2371,0.19566 0,0.27839 0.44702,0.50616 0.99338,0.50616 0.54636,0 0.99338,-0.20946 0.99338,-0.46547 0,-0.25833 0.80794,-0.33435 1.81564,-0.17082 1.4223,0.2308 1.72828,0.15329 1.4124,-0.35782 -0.30302,-0.49029 -0.12513,-0.57972 0.71572,-0.35983 1.43007,0.37397 2.51321,-0.0413 2.51321,-0.96362 0,-0.39667 0.20334,-0.59554 0.45187,-0.44194 0.7503,0.46371 1.91702,-0.22561 2.19755,-1.29836 0.14513,-0.55495 0.47709,-0.87721 0.7377,-0.71614 0.61582,0.38059 1.7578,-0.99311 1.36029,-1.6363 -0.16776,-0.27144 0.16933,-0.74739 0.74908,-1.05766 0.71191,-0.381 0.9708,-0.88268 0.7975,-1.54538 -0.15763,-0.6028 0.0343,-1.09286 0.49768,-1.27067 0.5277,-0.2025 0.67114,-0.70507 0.47753,-1.67311 -0.17187,-0.85935 -0.0488,-1.46021 0.32473,-1.58566 0.45942,-0.15429 0.441,-0.50326 -0.078,-1.47764 -0.37369,-0.7016 -0.5406,-1.50029 -0.3709,-1.77487 0.41832,-0.67686 -0.18454,-2.14179 -0.74011,-1.79843 -0.24456,0.15114 -0.44465,-0.31035 -0.44465,-1.02554 0,-1.79805 0.75237,-1.161 1.76721,1.49633 1.19628,3.1324 0.77493,7.89921 -0.95989,10.85945 -3.79584,6.47712 -12.41013,9.48673 -19.37139,6.76788 z"
       class="path"
       transform="scale(0.26458333)"
       id="path72" />
    <path
       style="fill:#696969;stroke:#d10000;stroke-width:0.274079;stroke-dasharray:0.274079, 0.274079"
       d=""
       class="path"
       transform="scale(0.26458333)"
       id="path74" />
    <path
       style="fill:#696969;stroke:#d10000;stroke-width:0.274079;stroke-dasharray:0.274079, 0.274079"
       d="m 394.37196,833.38395 c 0,-0.35597 -0.54084,-0.45061 -1.49007,-0.26077 -0.9276,0.18552 -1.49007,0.0934 -1.49007,-0.24416 0,-0.32002 -0.54469,-0.43805 -1.32933,-0.28805 -0.78511,0.15008 -1.61301,-0.0296 -2.02224,-0.43879 -0.86019,-0.86019 -1.61023,-0.89331 -1.63113,-0.072 -0.009,0.35873 -0.3141,0.22691 -0.72232,-0.31221 -0.45957,-0.60693 -1.07231,-0.83742 -1.753,-0.65942 -0.62707,0.16398 -1.14814,0.009 -1.30013,-0.38734 -0.3041,-0.79247 -2.92106,-1.95313 -3.54053,-1.57028 -0.24093,0.14891 -0.82697,-0.18346 -1.30229,-0.73859 -0.47532,-0.55514 -1.18572,-0.88597 -1.57867,-0.73518 -0.4216,0.16178 -0.71444,-0.0248 -0.71444,-0.45529 0,-0.69363 -0.26158,-0.81606 -1.98676,-0.92993 -0.40977,-0.0271 -0.74846,-0.27239 -0.75265,-0.54521 -0.0148,-0.96599 -0.84734,-1.80186 -1.5327,-1.53887 -0.44651,0.17135 -0.6948,-0.074 -0.6948,-0.68649 0,-0.52421 -0.39114,-1.18093 -0.8692,-1.45938 -0.47807,-0.27844 -0.6081,-0.51306 -0.28897,-0.52137 0.31913,-0.008 0.93378,-0.15077 1.3659,-0.31659 0.51555,-0.19783 0.78565,-0.0271 0.78565,0.49669 0,0.51075 0.42803,0.79818 1.18859,0.79818 0.65372,0 1.31724,0.33527 1.47448,0.74503 0.15725,0.40977 0.73993,0.74504 1.29487,0.74504 0.55493,0 1.00897,0.31136 1.00897,0.69189 0,0.76297 1.33352,1.45025 2.00666,1.03423 0.23482,-0.14513 0.68004,0.20903 0.98937,0.78702 0.43003,0.80352 0.85491,0.97748 1.80495,0.73904 0.72184,-0.18117 1.12222,-0.11718 0.95542,0.1527 -0.38851,0.62862 1.11673,1.15783 2.26061,0.79478 0.54767,-0.17382 0.92341,-0.0521 0.92341,0.29917 0,0.39315 0.50092,0.49206 1.49007,0.29423 0.81954,-0.16391 1.49007,-0.11945 1.49007,0.0988 0,0.21825 3.2409,0.39906 7.20201,0.40181 3.9611,0.003 7.202,-0.17581 7.202,-0.39681 0,-0.22099 0.67053,-0.2677 1.49007,-0.10379 1.01132,0.20226 1.49007,0.10118 1.49007,-0.31461 0,-0.41278 0.42411,-0.50618 1.30014,-0.28631 0.88948,0.22325 1.59545,0.0591 2.2351,-0.51982 0.52097,-0.47147 0.93497,-0.59902 0.93497,-0.28806 0,0.72969 1.60731,0.13775 2.16897,-0.79877 0.33178,-0.55322 0.51772,-0.57686 0.81058,-0.103 0.28199,0.45627 0.65143,0.3435 1.43204,-0.43711 0.5786,-0.57859 1.21964,-1.02553 1.42452,-0.99318 1.04283,0.16466 1.61425,-0.13871 1.61425,-0.857 0,-0.46327 0.2794,-0.69095 0.6659,-0.54264 0.83961,0.32219 2.05872,-0.4067 2.08847,-1.24869 0.0124,-0.35144 0.31533,-0.57526 0.67314,-0.49737 0.83654,0.18207 2.10882,-0.8638 1.75238,-1.44054 -0.15002,-0.24274 0.29946,-0.6589 0.99885,-0.92481 0.69938,-0.2659 1.27161,-0.82426 1.27161,-1.24079 0,-0.41653 0.34085,-0.75733 0.75745,-0.75733 0.44335,0 0.88037,-0.61457 1.05385,-1.48201 0.16303,-0.8151 0.46738,-1.37634 0.67635,-1.24719 0.51311,0.31712 1.63986,-1.09002 1.30573,-1.63066 -0.14612,-0.23641 0.18497,-0.81569 0.73574,-1.28727 0.55076,-0.47158 0.91649,-1.11213 0.81272,-1.42345 -0.10378,-0.31132 0.22458,-0.9793 0.72968,-1.4844 0.50511,-0.5051 0.76983,-1.15872 0.58828,-1.45247 -0.18156,-0.29376 -0.0433,-0.71134 0.30716,-0.92795 0.35049,-0.21662 0.61758,-1.08567 0.59354,-1.93123 -0.024,-0.84556 0.19279,-1.53739 0.48185,-1.53739 0.31905,0 0.40845,-0.58549 0.22754,-1.49007 -0.18664,-0.93317 -0.0938,-1.49007 0.24834,-1.49007 0.34217,0 0.43499,-0.55689 0.24835,-1.49007 -0.16811,-0.84055 -0.0869,-1.49007 0.18626,-1.49007 0.70791,0 0.5925,-1.85347 -0.13659,-2.19371 -0.49669,-0.23179 -0.49669,-0.34768 0,-0.57947 0.7364,-0.34366 0.84112,-2.19372 0.12417,-2.19372 -0.27318,0 -0.49669,-0.33526 -0.49669,-0.74503 0,-0.40977 0.22351,-0.74504 0.49669,-0.74504 0.27318,0 0.49669,-0.44702 0.49669,-0.99338 0,-0.54636 -0.21792,-0.99338 -0.48427,-0.99338 -0.27318,0 -0.35437,-0.64952 -0.18626,-1.49007 0.1922,-0.96099 0.0962,-1.49007 -0.27023,-1.49007 -0.35753,0 -0.45311,-0.45872 -0.25774,-1.2371 0.22064,-0.87912 0.0807,-1.32528 -0.4837,-1.54185 -0.55265,-0.21207 -0.7037,-0.66524 -0.49669,-1.49007 0.20893,-0.83245 0.0556,-1.27813 -0.51502,-1.49711 -0.5057,-0.19405 -0.70679,-0.64494 -0.53252,-1.19401 0.15908,-0.50122 -0.0992,-1.26146 -0.59809,-1.76033 -0.48296,-0.48296 -0.90353,-1.12116 -0.93459,-1.41824 -0.0311,-0.29707 -0.0905,-0.81952 -0.13214,-1.16099 -0.0416,-0.34147 -0.42072,-0.62086 -0.84246,-0.62086 -0.44702,0 -0.70594,-0.351 -0.62086,-0.84165 0.082,-0.47291 -0.34238,-1.09075 -0.96866,-1.41023 -0.61304,-0.31272 -0.97233,-0.71087 -0.79843,-0.88477 0.44263,-0.44263 -0.83313,-1.88 -1.37266,-1.54655 -0.24274,0.15002 -0.6589,-0.29946 -0.92481,-0.99885 -0.26591,-0.69939 -0.79819,-1.27161 -1.18287,-1.27161 -0.38466,0 -0.81629,-0.44703 -0.95917,-0.99338 -0.14288,-0.54636 -0.67395,-0.99338 -1.18017,-0.99338 -0.50623,0 -1.21126,-0.46573 -1.56674,-1.03495 -0.36245,-0.58037 -0.957,-0.91573 -1.35363,-0.76353 -0.40412,0.15508 -0.94166,-0.16651 -1.25408,-0.75028 -0.34127,-0.63766 -0.88253,-0.9339 -1.43999,-0.78812 -0.49126,0.12847 -1.23798,-0.1691 -1.65939,-0.66127 -0.4769,-0.55698 -1.15504,-0.79316 -1.79607,-0.62553 -0.61532,0.16091 -1.02989,0.0318 -1.02989,-0.32084 0,-0.33251 -0.51197,-0.52308 -1.17267,-0.4365 -0.64497,0.0845 -1.53616,-0.148 -1.98043,-0.51671 -0.44427,-0.36871 -1.14782,-0.53989 -1.56344,-0.3804 -0.41562,0.15949 -1.29761,0.0839 -1.95999,-0.1679 -0.84087,-0.3197 -1.28925,-0.27802 -1.48575,0.1381 -0.21537,0.45607 -0.34947,0.45022 -0.57118,-0.0249 -0.3498,-0.74957 -2.19372,-0.83503 -2.19372,-0.10167 0,0.32436 -0.65236,0.39681 -1.73841,0.19307 -1.12003,-0.21012 -1.73842,-0.1342 -1.73842,0.21342 0,0.3346 -0.56601,0.42635 -1.49007,0.24154 -0.98915,-0.19784 -1.49007,-0.0989 -1.49007,0.29423 0,0.36242 -0.37822,0.4722 -0.97467,0.2829 -0.639,-0.20281 -1.26285,0.0272 -1.81145,0.66795 -0.46374,0.54161 -1.16839,0.85004 -1.58061,0.69186 -0.4091,-0.15699 -0.99965,0.0644 -1.31232,0.49204 -0.31268,0.42761 -1.11852,0.85507 -1.79076,0.94991 -0.67225,0.0948 -1.22728,0.50771 -1.23341,0.91747 -0.006,0.414 -0.37577,0.68401 -0.83176,0.6077 -0.8083,-0.13529 -1.6074,0.65571 -1.64409,1.62741 -0.0103,0.27318 -0.38802,0.43489 -0.83936,0.35935 -0.81213,-0.13593 -1.61824,0.66746 -1.63294,1.62741 -0.004,0.27318 -0.23112,0.50011 -0.5043,0.5043 -0.86287,0.0132 -1.76998,0.78958 -1.63078,1.39574 0.0737,0.32088 0.002,0.58341 -0.15884,0.58341 -0.61959,0 -1.94252,1.40104 -1.82131,1.92885 0.07,0.30503 -0.0745,0.59045 -0.32131,0.63427 -0.65916,0.11705 -1.383,1.59181 -1.04763,2.13445 0.15903,0.25731 -0.18521,0.7217 -0.76496,1.03197 -0.71191,0.38101 -0.9708,0.88268 -0.7975,1.54538 0.15763,0.6028 -0.0343,1.09286 -0.49768,1.27068 -0.53341,0.20469 -0.67119,0.70481 -0.47055,1.70803 0.15605,0.78022 0.0897,1.41859 -0.14741,1.41859 -0.75322,0 -1.09414,1.64193 -0.43007,2.07122 0.45748,0.29574 0.48085,0.5175 0.0827,0.78475 -0.64563,0.43335 -0.77048,8.5679 -0.1315,8.5679 0.22733,0 0.27921,0.67053 0.11531,1.49007 -0.20312,1.01559 -0.10164,1.49007 0.31869,1.49007 0.38163,0 0.51291,0.39692 0.3444,1.04129 -0.34085,1.3034 0.0976,2.53053 0.75829,2.12221 0.31647,-0.19559 0.37692,0.24253 0.16599,1.20293 -0.24958,1.13629 -0.12568,1.6259 0.50003,1.97606 0.72331,0.40479 0.74488,0.62078 0.16541,1.65589 l -0.66641,1.19039 -0.17361,-1.14793 c -0.0955,-0.63135 -0.49154,-1.26992 -0.88013,-1.41903 -0.38858,-0.14912 -0.70651,-0.81299 -0.70651,-1.47529 0,-0.66229 -0.32563,-1.32913 -0.72363,-1.48186 -0.50574,-0.19407 -0.6366,-0.71282 -0.4346,-1.72282 0.18441,-0.92204 0.0833,-1.44515 -0.27921,-1.44515 -0.35119,0 -0.45439,-0.4536 -0.27019,-1.18754 0.16393,-0.65314 0.0556,-1.33737 -0.2407,-1.52051 -0.30603,-0.18913 -0.40165,-0.87925 -0.22137,-1.59756 0.20573,-0.8197 0.0753,-1.43389 -0.37069,-1.74579 -0.53119,-0.37147 -0.54652,-0.53864 -0.0672,-0.73312 0.34148,-0.13856 0.62086,-0.66169 0.62086,-1.16252 0,-0.50083 -0.27938,-1.02396 -0.62086,-1.16252 -0.47929,-0.19448 -0.46396,-0.36164 0.0672,-0.73311 0.45213,-0.31619 0.57663,-0.92529 0.36305,-1.77623 -0.20735,-0.82616 -0.12081,-1.29504 0.23902,-1.29504 0.34375,0 0.46481,-0.51922 0.30994,-1.32933 -0.15335,-0.80219 0.032,-1.61544 0.46735,-2.05081 0.39681,-0.39681 0.58929,-1.06592 0.42774,-1.48692 -0.16155,-0.421 -0.0347,-0.92554 0.28187,-1.1212 0.31658,-0.19565 0.5756,-0.92674 0.5756,-1.62463 0,-0.6979 0.33268,-1.39656 0.7393,-1.5526 0.4517,-0.17333 0.63886,-0.66778 0.4811,-1.27104 -0.16728,-0.63969 -0.0122,-0.98734 0.44034,-0.98734 0.66453,0 0.78553,-0.26741 0.89902,-1.98676 0.027,-0.40977 0.38414,-0.74504 0.79355,-0.74504 0.40941,0 0.81282,-0.48011 0.89646,-1.06692 0.0836,-0.58681 0.58655,-1.18054 1.11756,-1.3194 0.56834,-0.14862 0.96547,-0.68021 0.96547,-1.29235 0,-0.72426 0.31562,-1.03988 1.03988,-1.03988 0.60683,0 1.14348,-0.39617 1.28865,-0.95132 0.13683,-0.52322 0.78512,-1.08593 1.44066,-1.25046 0.65554,-0.16453 1.13732,-0.49637 1.07062,-0.73743 -0.0667,-0.24106 -0.01,-0.42287 0.12709,-0.40403 0.73576,0.10151 2.46263,-1.25553 2.17988,-1.71302 -0.19501,-0.31554 -0.0474,-0.43511 0.3586,-0.29054 0.96753,0.34447 2.52665,-0.54941 2.11632,-1.21334 -0.22548,-0.36482 0.0236,-0.45494 0.73986,-0.26764 0.61608,0.16111 1.38075,-0.0186 1.7806,-0.41845 0.38545,-0.38545 1.27557,-0.70082 1.97803,-0.70082 0.70246,0 1.2772,-0.22777 1.2772,-0.50615 0,-0.28644 0.51814,-0.37611 1.19366,-0.20656 0.85016,0.21337 1.34782,0.0374 1.72933,-0.6114 0.43137,-0.73363 0.62184,-0.78013 0.97828,-0.23885 0.3311,0.50281 0.68856,0.54052 1.41885,0.14967 0.53694,-0.28735 1.48228,-0.39014 2.10077,-0.2284 0.69337,0.18132 1.29546,0.0287 1.57037,-0.39802 0.37957,-0.5892 0.51177,-0.58979 0.88923,-0.004 0.29239,0.45377 0.88234,0.57791 1.73242,0.36456 0.73612,-0.18476 1.74553,-0.0538 2.35331,0.30529 0.8651,0.51114 1.10824,0.50695 1.29924,-0.0224 0.18231,-0.50531 0.44185,-0.46398 1.15833,0.18441 0.50817,0.45989 1.28329,0.69753 1.72381,0.52848 0.44024,-0.16893 1.13711,0.0295 1.54861,0.44102 0.41149,0.4115 0.95538,0.62011 1.20863,0.4636 0.25325,-0.15652 0.81756,0.0725 1.25402,0.50898 0.46259,0.46259 1.18604,0.66899 1.7346,0.49489 0.65038,-0.20642 0.94105,-0.0582 0.94105,0.47983 0,0.71883 0.60414,1.01294 1.677,0.8164 0.2394,-0.0438 0.76549,0.39171 1.16908,0.96793 0.4036,0.57622 1.04589,0.92791 1.42731,0.78154 0.39699,-0.15234 0.69351,0.0417 0.69351,0.45386 0,0.396 0.53765,0.85493 1.1948,1.01986 0.65713,0.16493 1.30674,0.72797 1.44357,1.25119 0.14517,0.55515 0.68181,0.95132 1.28865,0.95132 0.72425,0 1.03988,0.31562 1.03988,1.03988 0,0.62216 0.39904,1.14423 0.99338,1.29965 0.54636,0.14288 0.99338,0.56111 0.99338,0.92941 0,0.36829 0.45328,0.91221 1.00729,1.20871 0.55401,0.2965 0.90403,0.70618 0.77781,0.9104 -0.33967,0.5496 0.56391,1.81312 1.3011,1.81939 0.37642,0.003 0.57489,0.4638 0.48301,1.12094 -0.0929,0.6643 0.15825,1.23608 0.62086,1.4136 0.42726,0.16395 0.77683,0.72822 0.77683,1.25393 0,0.5257 0.34193,1.08703 0.75984,1.2474 0.46508,0.17847 0.64957,0.63899 0.47559,1.18714 -0.17755,0.55945 0.13166,1.28302 0.82389,1.92794 0.60948,0.56781 0.8634,1.03238 0.56429,1.03238 -0.29931,0 -0.42704,0.44666 -0.28407,0.99338 0.14287,0.54636 0.48112,0.99338 0.75167,0.99338 0.27055,0 0.36325,0.33527 0.206,0.74503 -0.38071,0.99213 0.15481,2.30907 0.78147,1.92177 0.31957,-0.1975 0.37083,0.27026 0.14321,1.30663 -0.24773,1.1279 -0.1515,1.7566 0.3194,2.08671 0.52669,0.36922 0.53762,0.52773 0.05,0.72541 -0.34318,0.13913 -0.48214,0.48243 -0.3088,0.76289 0.50168,0.81174 0.51862,8.34564 0.0188,8.34564 -0.24855,0 -0.32185,0.65032 -0.16288,1.44515 0.20867,1.04334 0.0732,1.52797 -0.48729,1.74304 -0.53513,0.20535 -0.68389,0.66615 -0.47882,1.48321 0.20741,0.82639 0.0559,1.27803 -0.50036,1.49148 -0.48421,0.18581 -0.70228,0.67163 -0.55473,1.23585 0.14011,0.5358 -0.14729,1.26396 -0.67836,1.71868 -0.51317,0.43938 -0.79246,1.12518 -0.63032,1.54773 0.1814,0.47271 0.0103,0.75874 -0.45387,0.75874 -0.8191,0 -1.51382,1.31664 -1.07196,2.03158 0.1536,0.24853 -0.0748,0.45187 -0.5075,0.45187 -0.47452,0 -0.9035,0.58365 -1.0809,1.47067 -0.16177,0.80886 -0.53915,1.42352 -0.83861,1.36589 -0.29946,-0.0576 -0.76737,0.38437 -1.03979,0.98221 -0.27242,0.59785 -0.90903,1.19518 -1.41469,1.32741 -0.55386,0.14483 -0.85784,0.59686 -0.76459,1.13698 0.0917,0.53136 -0.14869,0.90109 -0.59025,0.9077 -0.40977,0.006 -0.96567,0.51404 -1.23533,1.1287 -0.26967,0.61465 -0.90525,1.11755 -1.4124,1.11755 -0.50716,0 -1.03572,0.43446 -1.17458,0.96547 -0.13886,0.53101 -0.73259,1.03391 -1.3194,1.11755 -0.5868,0.0837 -1.07193,0.48735 -1.07806,0.89712 -0.006,0.41402 -0.37577,0.68401 -0.83181,0.60768 -0.45137,-0.0756 -1.14452,0.32501 -1.54034,0.89012 -0.39582,0.56512 -0.91555,0.99161 -1.15495,0.94775 -1.07286,-0.19654 -1.677,0.0976 -1.677,0.81641 0,0.53804 -0.29067,0.68625 -0.94105,0.47983 -0.5401,-0.17142 -1.26565,0.0259 -1.70293,0.46322 -0.41905,0.41904 -1.20097,0.76189 -1.73762,0.76189 -0.53664,0 -1.09377,0.30764 -1.23805,0.68364 -0.16661,0.43416 -0.72977,0.59429 -1.54321,0.43879 -0.79335,-0.15166 -1.28088,-0.021 -1.28088,0.34321 0,0.35113 -0.37915,0.46773 -0.94104,0.28939 -0.56036,-0.17785 -1.28183,0.0421 -1.78349,0.54377 -0.65283,0.65283 -0.92988,0.70098 -1.2309,0.21392 -0.27966,-0.4525 -0.65104,-0.48798 -1.32611,-0.1267 -0.51571,0.276 -1.54993,0.38478 -2.29827,0.24173 -0.82594,-0.1579 -1.36061,-0.0422 -1.36061,0.29449 0,0.30503 -0.33526,0.55459 -0.74503,0.55459 -0.40977,0 -0.74504,-0.22351 -0.74504,-0.49669 0,-0.27318 -0.44702,-0.49669 -0.99338,-0.49669 -0.54636,0 -0.99338,0.22351 -0.99338,0.49669 0,0.27318 -0.22351,0.49669 -0.49669,0.49669 -0.27318,0 -0.49669,-0.25145 -0.49669,-0.55877 z"
       class="path"
       transform="scale(0.26458333)"
       id="path76" />
    <path
       style="fill:#696969;stroke:#d10000;stroke-width:0.274079;stroke-dasharray:0.274079, 0.274079"
       d="m 441.16193,797.10487 c -0.0556,-0.4553 -0.38049,-0.9582 -0.72196,-1.11755 -0.49669,-0.23179 -0.49669,-0.34768 0,-0.57947 0.34147,-0.15936 0.62086,-0.69951 0.62086,-1.20034 0,-0.50083 -0.27939,-1.04098 -0.62086,-1.20033 -0.49669,-0.23179 -0.49669,-0.34769 0,-0.57947 0.74957,-0.3498 0.83502,-2.19372 0.10167,-2.19372 -0.32436,0 -0.39682,-0.65236 -0.19307,-1.73841 0.22286,-1.18797 0.14075,-1.73842 -0.25931,-1.73842 -0.34855,0 -0.46459,-0.38077 -0.28676,-0.94104 0.16871,-0.53157 -0.02,-1.25973 -0.43372,-1.67343 -0.41731,-0.41731 -0.614,-1.18511 -0.4572,-1.78472 0.1831,-0.70017 0.002,-1.15714 -0.54099,-1.36553 -0.50889,-0.19528 -0.71077,-0.64537 -0.53619,-1.19542 0.15401,-0.48523 -0.0771,-1.23933 -0.51355,-1.67579 -0.43646,-0.43646 -0.65941,-1.01063 -0.49543,-1.27595 0.16397,-0.26531 -0.10117,-0.88168 -0.5892,-1.3697 -0.48803,-0.48803 -0.90968,-1.16672 -0.93699,-1.50819 -0.11202,-1.40025 -0.2289,-1.61424 -0.88163,-1.61424 -0.37562,0 -0.8174,-0.67228 -0.98174,-1.49395 -0.16722,-0.83612 -0.5773,-1.43757 -0.93129,-1.3659 -0.34788,0.0704 -0.57368,-0.23328 -0.50178,-0.6749 0.13299,-0.8168 -0.72031,-1.81003 -1.6208,-1.88661 -0.27317,-0.0232 -0.49669,-0.32162 -0.49669,-0.6631 0,-0.34147 -0.46585,-0.82554 -1.03522,-1.07571 -0.56937,-0.25016 -1.24808,-0.9207 -1.50825,-1.49007 -0.26016,-0.56937 -0.76348,-0.97293 -1.11848,-0.89679 -0.355,0.0761 -0.76403,-0.31501 -0.90896,-0.86921 -0.23866,-0.91266 -0.74389,-1.22249 -1.74705,-1.0714 -0.19673,0.0296 -0.59574,-0.39092 -0.88669,-0.93456 -0.29095,-0.54364 -0.94424,-0.98844 -1.45176,-0.98844 -0.50752,0 -1.06115,-0.36062 -1.23028,-0.80138 -0.19591,-0.51052 -0.66825,-0.70706 -1.30137,-0.54149 -0.66432,0.17372 -1.1699,-0.0691 -1.52485,-0.73229 -0.3839,-0.71732 -0.84933,-0.91228 -1.68013,-0.70377 -0.78839,0.19788 -1.24524,0.038 -1.45529,-0.50944 -0.20179,-0.52586 -0.66491,-0.70404 -1.35849,-0.52266 -0.59305,0.15509 -1.36462,-0.0371 -1.76786,-0.44034 -0.83382,-0.83382 -1.63796,-0.93563 -1.63796,-0.20739 0,0.27948 -0.57785,0.12952 -1.28411,-0.33324 -1.09373,-0.71664 -1.35147,-0.73675 -1.73842,-0.13562 -0.31512,0.48955 -0.56841,0.53857 -0.82681,0.16002 -0.20489,-0.30015 -1.49007,-0.54573 -2.85597,-0.54573 -1.3659,0 -2.65109,0.24558 -2.85597,0.54573 -0.25622,0.37537 -0.52285,0.31315 -0.85405,-0.1993 -0.39426,-0.61 -0.66065,-0.63404 -1.46975,-0.13266 -0.63781,0.39525 -1.39166,0.46246 -2.12608,0.18956 -0.95002,-0.35301 -0.68686,-0.48723 1.59391,-0.8129 4.27135,-0.60992 10.52383,-0.38219 14.23984,0.51863 7.40302,1.79463 16.06593,7.1597 20.67656,12.80531 6.45495,7.90393 10.03053,17.96314 9.66039,27.17764 -0.093,2.31633 -0.21466,3.83898 -0.27027,3.38368 z"
       class="path"
       transform="scale(0.26458333)"
       id="path78" />
    <path
       style="fill:#696969;stroke:#d10000;stroke-width:0.274079;stroke-dasharray:0.274079, 0.274079"
       d=""
       class="path"
       transform="scale(0.26458333)"
       id="path80" />
    <path
       style="fill:#696969;stroke:#d10000;stroke-width:0.274079;stroke-dasharray:0.274079, 0.274079"
       d="m 406.78921,839.07291 c 0,-0.45656 -0.3699,-1.23884 -0.82201,-1.73842 -0.77698,-0.85855 -0.7489,-0.90832 0.51236,-0.90832 3.37095,0 14.36043,-4.94309 19.14759,-8.61263 3.5919,-2.75333 7.76353,-6.96059 9.38712,-9.46732 0.72529,-1.1198 1.45996,-2.14775 1.63259,-2.28434 0.17264,-0.13659 1.14774,-1.90907 2.16689,-3.93884 4.27201,-8.50822 5.54376,-19.73494 3.29223,-29.06309 -1.11906,-4.63632 -4.58149,-12.22899 -6.89788,-15.12619 -6.63122,-8.29393 -13.41166,-13.01768 -22.31382,-15.54545 -5.46284,-1.55117 -15.10817,-1.54497 -20.65768,0.0133 -13.31885,3.73978 -23.63534,14.0314 -26.97027,26.90524 -1.16283,4.48889 -1.17658,13.67196 -0.0264,17.6325 2.0206,6.95769 4.84507,11.83826 9.43069,16.29578 5.27557,5.1282 9.93739,7.7723 15.8604,8.99573 7.80625,1.61243 14.75336,0.68964 21.97012,-2.91831 7.1702,-3.58468 12.28562,-9.2283 14.9645,-16.50972 1.28615,-3.49584 1.4233,-4.4623 1.39599,-9.837 -0.0348,-6.84153 -1.00665,-10.45662 -4.07266,-15.14905 -7.75701,-11.87187 -21.07673,-15.87373 -33.14882,-9.95942 -7.30761,3.58012 -11.93757,9.74951 -13.15282,17.52605 -1.35798,8.68983 3.36035,17.63502 11.4286,21.66677 2.82505,1.41169 3.5634,1.56139 7.70139,1.56139 5.33022,0 7.81958,-0.73072 11.15513,-3.27445 7.16049,-5.46066 8.25767,-16.14708 2.30719,-22.47164 -5.42783,-5.76905 -14.86009,-4.64291 -18.02432,2.15195 -1.41961,3.04849 -1.43908,3.84387 -0.15878,6.48861 0.70404,1.45436 1.65667,2.42643 3.15886,3.22334 2.14797,1.1395 2.153,1.13974 3.7912,0.18298 0.98351,-0.5744 1.8616,-1.6151 2.19285,-2.59892 0.67328,-1.99966 1.27292,-1.5679 1.27292,0.91653 0,7.05294 -11.27325,7.27939 -14.44717,0.29021 -1.11071,-2.44587 -1.24243,-7.0889 -0.26732,-9.42268 0.97519,-2.33395 3.60912,-5.16854 5.97539,-6.43059 2.89615,-1.54468 9.95625,-1.5563 13.2834,-0.0219 3.08339,1.422 5.92521,4.35482 7.67726,7.92309 1.28405,2.61514 1.43589,3.43096 1.42307,7.64605 -0.0129,4.24535 -0.17211,5.05463 -1.58739,8.06961 -3.5498,7.56213 -11.20059,11.73731 -20.51944,11.19785 -13.52295,-0.78283 -23.51177,-14.53315 -20.67275,-28.45752 2.10313,-10.31508 9.16229,-17.91494 19.38238,-20.86697 4.16536,-1.20315 11.99501,-1.09899 16.20954,0.21565 7.76313,2.42154 14.49603,8.2248 18.17194,15.66287 2.39203,4.84019 3.18435,8.31878 3.17288,13.93017 -0.0154,7.55688 -1.56362,13.03793 -5.16871,18.29907 -6.09535,8.89535 -14.75479,14.13982 -24.97903,15.12821 -11.9886,1.15895 -22.36816,-2.47652 -30.28049,-10.60584 -4.19059,-4.30552 -7.22668,-9.25386 -9.27866,-15.12275 -1.38409,-3.95862 -1.47606,-4.68641 -1.47504,-11.67221 8e-4,-5.52459 0.22457,-8.27519 0.86571,-10.64147 1.22058,-4.50477 4.91524,-11.84577 7.48822,-14.87851 6.92119,-8.15792 16.17124,-13.37226 26.61365,-15.00236 10.54919,-1.64677 24.16713,1.62052 31.97927,7.67263 3.04147,2.35624 8.75915,8.21455 10.61551,10.87661 2.52771,3.62479 5.42213,10.19368 6.64486,15.08053 1.54674,6.18183 1.53761,15.95345 -0.0208,22.26013 -3.94098,15.94855 -15.48717,28.3917 -31.77128,34.23941 -4.24069,1.52285 -5.55816,1.63513 -5.55816,0.47367 z"
       class="path"
       transform="scale(0.26458333)"
       id="path82" />
    <path
       style="fill:#696969;stroke:#d10000;stroke-width:0.274079;stroke-dasharray:0.274079, 0.274079"
       d=""
       class="path"
       transform="scale(0.26458333)"
       id="path84" />
    <path
       style="fill:#696969;stroke:#d10000;stroke-width:0.274079;stroke-dasharray:0.274079, 0.274079"
       d="m 347.12855,829.67947 c -0.0318,-0.25042 -0.0339,-1.40522 -0.005,-2.56624 0.0293,-1.16101 -0.11497,-2.11093 -0.32063,-2.11093 -0.20566,0 -0.33784,-1.45282 -0.29373,-3.22849 0.0441,-1.77566 -0.0676,-3.22848 -0.24835,-3.22848 -0.1807,0 -0.29245,-1.45282 -0.24834,-3.22849 0.0441,-1.77566 -0.065,-3.22848 -0.24239,-3.22847 -0.17742,10e-6 -0.36398,-1.84395 -0.41458,-4.09769 -0.12191,-5.43053 -0.47761,-12.97546 -0.62636,-13.28648 -0.0653,-0.13659 -0.13033,-2.20406 -0.14444,-4.59438 -0.0141,-2.39032 -0.16102,-4.346 -0.32645,-4.34595 -0.16544,5e-5 -0.27903,-2.80172 -0.25243,-6.22616 0.0266,-3.42444 -0.0851,-6.30873 -0.24834,-6.40953 -0.1632,-0.1008 -0.27462,-3.66907 -0.24761,-7.9295 0.027,-4.26043 -0.0847,-7.74622 -0.24834,-7.74619 -0.1636,2e-5 -0.27258,-5.86713 -0.24217,-13.03812 0.0385,-9.0691 -0.11275,-13.14924 -0.49669,-13.40307 -0.38635,-0.25541 -0.36568,-0.36719 0.0689,-0.37252 0.34148,-0.004 0.62087,-0.34287 0.62087,-0.75264 0,-0.40977 -0.16764,-0.74504 -0.37252,-0.74504 -0.20488,-1e-5 -0.37252,-9.61096 -0.37252,-21.35768 0,-11.74673 0.16764,-21.35767 0.37252,-21.35767 0.20488,0 0.37252,-0.33526 0.37252,-0.74503 0,-0.40977 -0.27939,-0.74846 -0.62087,-0.75264 -0.43368,-0.005 -0.45474,-0.11762 -0.0699,-0.37252 0.38443,-0.2546 0.53081,-4.56907 0.48423,-14.27223 -0.0367,-7.64903 0.13385,-14.18672 0.37903,-14.52819 0.27723,-0.3861 0.21199,-0.90258 -0.17253,-1.3659 -0.34008,-0.40977 -0.40145,-0.74503 -0.13638,-0.74503 0.29658,0 0.46207,-3.67767 0.43027,-9.56129 -0.0303,-5.59892 0.15542,-9.92778 0.44807,-10.44564 0.3701,-0.65492 0.30646,-1.00733 -0.24527,-1.3583 -0.40977,-0.26066 -0.49943,-0.47735 -0.19924,-0.48153 0.37495,-0.005 0.53043,-2.41754 0.49669,-7.70639 -0.027,-4.23432 0.0884,-7.69873 0.25639,-7.69869 0.16802,4e-5 0.27977,-2.90561 0.24834,-6.45701 -0.0314,-3.5514 0.0778,-6.45704 0.24269,-6.45698 0.16491,7e-5 0.31196,-2.40261 0.32677,-5.33929 0.0148,-2.93669 0.0799,-5.45118 0.14464,-5.58777 0.0647,-0.13659 0.15284,-2.15382 0.19578,-4.48274 0.0429,-2.32891 0.20742,-4.45227 0.36551,-4.71855 0.15809,-0.26629 0.25145,-2.32813 0.20746,-4.58186 -0.044,-2.25373 0.0793,-4.09769 0.2739,-4.09769 0.19463,0 0.31315,-1.45285 0.26337,-3.22855 -0.0498,-1.77569 0.0615,-3.22851 0.2472,-3.22848 0.18573,3e-5 0.2877,-1.45276 0.22659,-3.22843 -0.0611,-1.77567 0.0663,-3.22849 0.28316,-3.22849 0.21685,0 0.39427,0.4284 0.39427,0.95199 0,0.5236 0.27939,1.06536 0.62086,1.20391 0.47836,0.1941 0.46201,0.36294 -0.0712,0.73559 -0.42332,0.29583 -0.57789,0.92037 -0.39802,1.60819 0.16174,0.61848 0.059,1.56383 -0.2284,2.10076 -0.39042,0.72951 -0.3526,1.09537 0.14967,1.44758 0.52303,0.36678 0.53441,0.52723 0.0513,0.72326 -0.74614,0.30276 -0.83785,2.15591 -0.1067,2.15591 0.34098,0 0.32675,0.35019 -0.0422,1.03964 -0.30602,0.5718 -0.42138,1.5776 -0.25636,2.2351 0.16993,0.67704 0.0806,1.19547 -0.20611,1.19547 -0.72539,0 -0.62668,1.85507 0.11471,2.1559 0.49015,0.19888 0.49216,0.34324 0.01,0.68564 -0.41047,0.29124 -0.54763,1.44581 -0.41754,3.51464 0.10656,1.69451 -0.01,3.08093 -0.25793,3.08093 -0.6842,0 -0.54055,1.8625 0.16919,2.19371 0.49669,0.23179 0.49669,0.34769 0,0.57948 -0.77173,0.36014 -0.82468,2.19371 -0.0633,2.19371 0.38606,0 0.36804,0.22829 -0.0586,0.74239 -0.33887,0.40831 -0.48946,1.22674 -0.33466,1.81872 0.15481,0.59198 0.0374,1.5324 -0.26095,2.08983 -0.39795,0.74359 -0.39116,1.06393 0.0255,1.20282 0.69808,0.23269 0.75892,1.59659 0.0712,1.59659 -0.71858,0 -0.6116,1.85736 0.12417,2.1559 0.47506,0.19277 0.48227,0.35072 0.0307,0.67261 -0.36402,0.25948 -0.5387,1.46356 -0.45583,3.14213 0.0739,1.49679 -0.0405,3.20944 -0.25414,3.80589 -0.25223,0.70409 -0.17946,1.1614 0.20749,1.30382 0.45765,0.16844 0.45187,0.37211 -0.0249,0.87747 -0.79838,0.84628 -0.79838,2.28057 0,2.65315 0.49669,0.23179 0.49669,0.34769 0,0.57947 -0.80407,0.37524 -0.80407,2.0366 0,2.36286 0.46102,0.18706 0.47369,0.35756 0.0492,0.66225 -0.37166,0.26678 -0.54176,2.01765 -0.48623,5.00472 0.047,2.52691 -0.0869,4.59438 -0.29757,4.59438 -0.63437,0 -0.43029,1.88189 0.23789,2.19372 0.49669,0.23178 0.49669,0.34768 0,0.57946 -0.80358,0.37501 -0.80358,2.02567 0,2.40068 0.49669,0.23178 0.49669,0.34768 0,0.57947 -0.80407,0.37523 -0.80407,2.03659 0,2.36285 0.44164,0.17921 0.46321,0.37037 0.0747,0.66226 -0.35032,0.26321 -0.52383,2.54726 -0.48394,6.37061 0.0342,3.27815 -0.16707,6.38062 -0.44725,6.89438 -0.37068,0.67969 -0.34033,0.99534 0.11143,1.15895 0.73664,0.26676 0.84051,1.63213 0.12417,1.63213 -0.71695,0 -0.61223,1.85006 0.12417,2.19371 0.49669,0.23179 0.49669,0.34769 0,0.57947 -0.80358,0.37501 -0.80358,2.02567 0,2.40067 0.49669,0.23179 0.49669,0.34769 0,0.57947 -0.80358,0.37501 -0.80358,2.02567 0,2.40067 0.49669,0.23179 0.49669,0.34769 0,0.57947 -0.7364,0.34366 -0.84112,2.19372 -0.12417,2.19372 0.27318,0 0.49669,0.33526 0.49669,0.74503 0,0.40977 -0.18023,0.74504 -0.40052,0.74504 -0.64292,0 -0.5343,79.14296 0.1093,79.63241 0.37939,0.28851 0.35525,0.48511 -0.0813,0.66225 -0.34147,0.13856 -0.62086,0.66169 -0.62086,1.16252 0,0.50083 0.27939,1.04098 0.62086,1.20034 0.49669,0.23178 0.49669,0.34768 0,0.57946 -0.80358,0.37501 -0.80358,2.02567 0,2.40068 0.49669,0.23178 0.49669,0.34768 0,0.57947 -0.7364,0.34365 -0.84112,2.19371 -0.12417,2.19371 0.27318,0 0.49669,0.33527 0.49669,0.74504 0,0.40977 -0.22351,0.74503 -0.49669,0.74503 -0.71695,0 -0.61223,1.85006 0.12417,2.19372 0.49669,0.23178 0.49669,0.34768 0,0.57947 -0.66774,0.31161 -0.87245,2.19371 -0.2386,2.19371 0.21024,0 0.35,2.73801 0.31057,6.08446 -0.0473,4.00978 0.11879,6.22436 0.48694,6.49478 0.406,0.29821 0.389,0.47917 -0.0622,0.66225 -0.80407,0.32626 -0.80407,1.98763 0,2.36286 0.49669,0.23179 0.49669,0.34769 0,0.57947 -0.7364,0.34366 -0.84112,2.19372 -0.12417,2.19372 0.27318,0 0.49669,0.33526 0.49669,0.74503 0,0.40977 -0.21798,0.74504 -0.4844,0.74504 -0.29005,0 -0.32348,0.44838 -0.0833,1.11755 0.22059,0.61466 0.34062,2.3422 0.26672,3.83899 -0.0829,1.67857 0.0918,2.88265 0.45583,3.14213 0.4516,0.3219 0.44439,0.47985 -0.0307,0.67261 -0.73577,0.29855 -0.84275,2.1559 -0.12417,2.1559 0.71634,0 0.61247,1.36536 -0.12417,1.63213 -0.46014,0.16663 -0.48376,0.46666 -0.0913,1.15895 0.29128,0.51375 0.47272,2.15875 0.40319,3.65554 -0.0776,1.67034 0.10152,2.88392 0.46376,3.14212 0.4516,0.3219 0.44439,0.47985 -0.0307,0.67261 -0.70877,0.28759 -0.85539,2.1559 -0.16919,2.1559 0.24842,0 0.36449,1.38642 0.25793,3.08093 -0.13009,2.06883 0.007,3.2234 0.41754,3.51464 0.48257,0.34241 0.48056,0.48676 -0.01,0.68564 -0.74139,0.30083 -0.8401,2.15591 -0.11471,2.15591 0.29258,0 0.37396,0.52668 0.19288,1.24817 -0.17967,0.71589 -0.0519,1.56315 0.2997,1.98676 0.42589,0.51317 0.44282,0.73859 0.0555,0.73859 -0.30663,0 -0.55751,0.55877 -0.55751,1.24172 0,0.68295 0.19085,1.24173 0.42411,1.24173 0.23326,0 0.34815,1.34106 0.25532,2.98014 -0.0928,1.63908 0.0184,2.98014 0.24724,2.98014 0.44191,0 0.29244,5.40342 -0.16204,5.8579 -0.14737,0.14737 -0.29397,0.0631 -0.32579,-0.18735 z"
       class="path"
       transform="scale(0.26458333)"
       id="path86" />
    <path
       style="fill:#696969;stroke:#d10000;stroke-width:0.274079;stroke-dasharray:0.274079, 0.274079"
       d=""
       class="path"
       transform="scale(0.26458333)"
       id="path88" />
    <path
       style="fill:#808080;stroke:#d10000;stroke-width:0.274079;stroke-dasharray:0.274079, 0.274079"
       d="m 406.6682,833.84177 c 0.37721,-0.45547 1.11387,-0.65983 1.86258,-0.5167 0.72217,0.13805 1.23857,0.006 1.23857,-0.31782 0,-0.30503 0.64662,-0.5546 1.43693,-0.5546 0.79032,0 1.55893,-0.31791 1.70804,-0.70648 0.16114,-0.41993 0.66909,-0.6024 1.25234,-0.44988 0.65092,0.17022 1.16056,-0.0785 1.51395,-0.73879 0.35646,-0.66605 0.86154,-0.9094 1.52656,-0.73549 0.63312,0.16556 1.10546,-0.031 1.30137,-0.54149 0.16913,-0.44076 0.75155,-0.80139 1.29426,-0.80139 0.57164,0 1.0969,-0.42125 1.2486,-1.00137 0.14403,-0.55075 0.51425,-0.97129 0.82271,-0.93453 1.24567,0.14846 1.69892,-0.0975 1.95021,-1.0585 0.14493,-0.5542 0.55396,-0.94534 0.90896,-0.8692 0.355,0.0761 0.87035,-0.35536 1.14521,-0.95887 0.27487,-0.60352 0.95358,-1.16229 1.50825,-1.24173 0.62407,-0.0894 1.01299,-0.52308 1.02028,-1.13781 0.008,-0.65607 0.29813,-0.94492 0.85509,-0.85067 0.54365,0.092 0.95152,-0.28845 1.14784,-1.07062 0.16749,-0.66734 0.73261,-1.32528 1.25584,-1.46211 0.55515,-0.14517 0.95131,-0.68182 0.95131,-1.28865 0,-0.59321 0.32002,-1.03988 0.74504,-1.03988 0.66781,0 0.96205,-0.58188 0.80879,-1.59942 -0.0296,-0.19672 0.39092,-0.59573 0.93456,-0.88668 0.58597,-0.3136 0.98844,-1.03942 0.98844,-1.78256 0,-0.71893 0.21432,-1.1211 0.50252,-0.94298 0.27925,0.17258 0.63786,-0.3661 0.80713,-1.21242 0.16753,-0.83764 0.51523,-1.52298 0.77267,-1.52298 1.62089,0 -3.4998,8.65914 -7.95944,13.45951 -5.81412,6.25835 -15.26298,11.85779 -22.18587,13.14746 -1.74166,0.32445 -1.90978,0.27716 -1.36274,-0.38335 z"
       class="path"
       transform="scale(0.26458333)"
       id="path90" />
    <path
       style="fill:#808080;stroke:#d10000;stroke-width:0.775213;stroke-dasharray:0.775213, 0.775213"
       d="M 345.58086,517.33668 C 340.25505,490.72686 323.20129,413.53715 316.25012,384.57819 l -1.26455,-5.2682 8.63094,0.0118 c 4.74702,0.006 21.9068,1.26555 38.13284,2.79795 16.22603,1.5324 30.6082,2.79147 31.96037,2.79794 2.30741,0.011 2.45849,4.19147 2.45849,68.02359 v 68.01182 l -5.26819,0.85067 c -5.05631,0.81643 -36.46395,3.54263 -41.34353,3.58862 -1.75288,0.0166 -2.77424,-2.053 -3.97563,-8.05566 z"
       class="path"
       transform="scale(0.26458333)"
       id="path92" />
    <path
       style="fill:#808080;stroke:#d10000;stroke-width:0.775213;stroke-dasharray:0.775213, 0.775213"
       d="m 400.38277,453.64439 v -67.55564 l 10.18518,0.8974 c 31.02333,2.73341 67.71326,6.53566 68.25053,7.07294 0.34014,0.34014 -0.15298,4.58889 -1.09583,9.44168 -1.59979,8.23407 -20.87835,88.35403 -23.96567,99.59917 -0.76708,2.79399 -1.39469,6.41447 -1.39469,8.04552 0,5.29199 -5.23872,7.07165 -25.32751,8.60407 -10.40893,0.79402 -20.66383,1.44521 -22.78867,1.44709 l -3.86334,0.003 z"
       class="path"
       transform="scale(0.26458333)"
       id="path94" />
    <path
       style="fill:#808080;stroke:#d10000;stroke-width:0.775213;stroke-dasharray:0.775213, 0.775213"
       d="m 434.11154,383.97424 c -17.37827,-1.90789 -31.91848,-3.79032 -32.3116,-4.18317 -0.39311,-0.39287 -0.84833,-74.46921 -1.0116,-164.61413 -0.26341,-145.431175 -0.0664,-163.108336 1.74812,-156.875589 1.12474,3.863342 13.14389,54.121919 26.70922,111.685719 13.56534,57.5638 25.9347,110.03502 27.48746,116.6027 6.51138,27.54098 8.31869,35.1879 11.78702,49.87224 2.00749,8.49936 5.51504,23.1736 7.79457,32.60941 2.27953,9.43583 4.14459,17.49616 4.14459,17.91186 0,1.41859 -14.72769,0.46242 -46.34778,-3.00904 z"
       class="path"
       transform="scale(0.26458333)"
       id="path96" />
    <path
       style="fill:#d3d3d3;stroke:#d10000;stroke-width:0.775213;stroke-dasharray:0.775213, 0.775213"
       d="m 356.12994,375.11768 c -36.55309,-4.0106 -37.22858,-4.14016 -37.22858,-7.1403 0,-3.09822 7.2364,-35.62498 15.45009,-69.44637 8.46477,-34.85524 45.54321,-184.72082 51.78886,-209.322919 l 5.34967,-21.072777 0.93784,98.339626 c 0.51581,54.0868 1.35365,123.78501 1.86185,154.88492 l 0.92401,56.54528 -8.30306,-0.16062 c -4.56668,-0.0883 -18.41799,-1.27042 -30.78068,-2.62684 z"
       class="path"
       transform="scale(0.26458333)"
       id="path98" />
    <path
       style="fill:#d3d3d3;stroke:#d10000;stroke-width:0.775213;stroke-dasharray:0.775213, 0.775213"
       d="m 347.09557,766.34667 c -1.44717,-127.80863 1.6525,-225.06532 7.35064,-230.63729 2.36752,-2.3151 27.4451,-4.57416 62.36315,-5.61787 l 29.77269,-0.8899 0.69794,3.37468 c 3.21036,15.52262 4.39234,56.1064 4.16937,143.15744 -0.11577,45.20111 -0.54154,83.4482 -0.94615,84.99353 -0.40461,1.54534 -0.78402,6.86622 -0.84314,11.82418 -0.11365,9.53138 -0.99912,10.09647 -3.66585,2.33946 -2.47007,-7.18496 -11.7086,-18.11607 -20.02639,-23.6954 -8.31641,-5.57842 -23.69122,-9.23752 -30.68408,-7.30262 -2.21788,0.61368 -5.16368,1.33333 -6.54621,1.59923 -4.54027,0.87318 -13.48162,6.04144 -17.86488,10.32621 -4.97841,4.86655 -6.31326,5.33363 -4.25576,1.48917 1.8664,-3.48741 1.86746,-7.11662 0.002,-7.11662 -2.60006,0 -10.08786,8.75296 -12.87192,15.04678 -2.85523,6.45472 -3.54918,8.80077 -5.31467,17.96724 -0.72705,3.77488 -1.16585,-1.75872 -1.33682,-16.85822 z"
       class="path"
       transform="scale(0.26458333)"
       id="path100" />
    <path
       style="fill:#d3d3d3;stroke:#d10000;stroke-width:0.775213;stroke-dasharray:0.775213, 0.775213"
       d="m 356.29074,1047.8472 c -10.9151,-11.0774 -17.08531,-22.6109 -19.82431,-37.0563 -1.80096,-9.4982 -2.39428,-45.24845 -0.88598,-53.38438 1.36062,-7.33931 15.49542,-39.43153 18.24715,-41.42906 0.54286,-0.39407 2.96403,-3.4497 5.38037,-6.79029 3.81852,-5.27911 4.22326,-6.65767 3.09342,-10.53639 -0.71495,-2.45442 -1.61998,-6.23049 -2.01116,-8.39125 -0.39119,-2.16076 -1.67018,-7.85041 -2.84221,-12.64367 -1.17203,-4.79325 -2.4212,-10.92765 -2.77594,-13.63199 -0.35473,-2.70434 -0.97024,-6.324 -1.3678,-8.04369 -0.39756,-1.71969 -1.03936,-6.46106 -1.42622,-10.53639 -0.38686,-4.07532 -0.98344,-9.62232 -1.32574,-12.32666 -0.3423,-2.70434 -1.02978,-10.29054 -1.52775,-16.85822 -0.49796,-6.56768 -1.11585,-12.28752 -1.37308,-12.71074 -0.25723,-0.42323 0.11309,-1.68759 0.82295,-2.80971 0.88567,-1.40004 1.29739,-1.48919 1.31215,-0.28413 0.0118,0.96583 -0.072,1.91411 -0.18621,2.10728 -0.32909,0.5564 5.91396,12.47301 7.71275,14.72196 1.63956,2.04985 8.26292,8.68515 12.1629,12.18481 4.99573,4.48294 14.78275,8.08834 24.06965,8.86692 7.54971,0.63294 10.08966,1.41346 11.17027,3.43259 1.7241,3.22152 5.59611,2.48449 17.08903,-3.25288 8.99881,-4.49229 19.47044,-14.43484 22.2367,-21.11321 1.51925,-3.66779 1.95847,-3.96268 2.71021,-1.81962 0.49343,1.40664 0.40473,5.13722 -0.1971,8.29018 -0.60183,3.15295 -2.42537,14.58321 -4.0523,25.40057 -1.62694,10.81736 -3.8235,23.14493 -4.88124,27.39461 -1.05774,4.24968 -2.21403,9.69413 -2.56953,12.09878 -0.35549,2.40465 -1.34742,5.68205 -2.20428,7.28311 -2.17101,4.05658 -1.95141,6.42626 0.90056,9.71777 1.35217,1.56057 4.03895,4.91833 5.97062,7.46169 1.93167,2.54336 4.24054,5.36548 5.13082,6.27138 2.20736,2.24608 10.98064,19.94902 12.88766,26.00501 2.88676,9.16735 3.34916,13.31344 3.91701,35.12129 0.4879,18.73788 0.16839,23.21133 -2.29068,32.07083 -2.91104,10.488 -9.32218,24.5271 -13.70371,30.0085 -6.23297,7.7975 -12.82931,14.387 -13.61526,13.6011 -0.47697,-0.477 1.6939,-3.6138 4.82416,-6.9707 8.1762,-8.7682 17.84084,-28.2209 19.65121,-39.5534 1.7606,-11.02087 1.65743,-46.85097 -0.15606,-54.20166 -0.70003,-2.83743 -1.51862,-6.18365 -1.8191,-7.43603 -0.74264,-3.09533 -7.9205,-17.21964 -9.19486,-18.0933 -0.56352,-0.38634 -2.04003,-2.68494 -3.28113,-5.10801 -3.55892,-6.9483 -18.72632,-19.79712 -27.04244,-22.90858 -11.17099,-4.17961 -28.49622,-2.92009 -38.19801,2.77692 -15.41242,9.05037 -25.45747,23.23745 -32.79116,46.31245 -2.92176,9.19311 -3.34379,13.22294 -3.31034,31.60916 0.0253,13.88299 0.70276,23.22975 1.98571,27.39465 1.07106,3.477 2.17381,7.5862 2.45055,9.1315 1.00477,5.6107 12.00271,25.9502 16.75814,30.9924 8.61748,9.1372 3.64556,7.0486 -5.63039,-2.3652 z"
       class="path"
       transform="scale(0.26458333)"
       id="path102" />
    <path
       style="fill:#d3d3d3;stroke:#d10000;stroke-width:0.775213;stroke-dasharray:0.775213, 0.775213"
       d=""
       class="path"
       transform="scale(0.26458333)"
       id="path104" />
  </g>
</svg>
