<?xml version="1.0" encoding="UTF-8"?>
<!-- Created with Inkscape (http://www.inkscape.org/) -->
<svg width="51.048" height="50.452" version="1.1" viewBox="0 0 13.507 13.349" xmlns="http://www.w3.org/2000/svg">
 <g transform="translate(-24.076 -1.1768)">
  <path d="m30.882 2.0068s0.63938 1.8686 0 2.2786c-1.1259 0.72199-6.7539 0-6.7539 0l-0.0503 2.0241c-0.0234 0.7015 0.39016 1.432 1.1814 1.4129 0 0 1.7429-0.60952 2.0568 0 0.85778 1.6656 0 6.8028 0 6.8028h2.5745c0.50933 0.0068 1.1101-0.06734 0.83048-0.96276-0.27962-0.89542-0.48318-1.4554 0-2.125s6.852 0 6.852 0v-2.3436c0.03956-1.0757 0.0091-1.1311-0.90658-1.0834-2.7403 0.1428-2.424 0.37347-2.7507 0-0.32663-0.37347 0.53824-6.8336 0.53824-6.8336h-2.0748c-1.1575-2e-3 -1.4863 0.1527-1.4972 0.82992z" fill="#249cb6"/>
 </g>
</svg>
