<?xml version="1.0" encoding="UTF-8"?>
<!-- Created with Inkscape (http://www.inkscape.org/) -->
<svg width="513.07" height="471.85" version="1.1" viewBox="0 0 135.75 124.84" xmlns="http://www.w3.org/2000/svg">
 <g transform="translate(-3.3187 -2.9471)">
  <g fill="none" stroke="#0f1112" stroke-width=".52917">
   <path transform="translate(-27.604 -53.972)" d="m43.245 61.866v71.266l9e-6 1.787-11.977 44.514h134.95l-11.103-44.156v-72.732a5.36 5.36 45 0 0-5.36-5.36h-101.83a4.6815 4.6815 135 0 0-4.6815 4.6815z"/>
   <rect x="19.93" y="7.1431" width="103.29" height="67.906" ry="2.622"/>
   <path d="m15.641 81.125h111.87"/>
   <path d="m5.0248 127.53h131.39"/>
   <path d="m138.82 125.71c-0.13918 0.40872-0.27784 0.55568-0.437 0.87399-0.0488 0.0975-0.17375 0.10092-0.2185 0.14567-0.0559 0.0559-0.0418 0.22928-0.0728 0.29133-0.0109 0.0217-0.0511-0.0109-0.0728 0-0.30312 0.15155 0.0779-5e-3 -0.0728 0.14566-0.0857 0.0858-0.26508 0.0233-0.36416 0.0728-0.0819 0.041-0.13222 0.18974-0.2185 0.2185-0.24739 0.0825-1.0692 0-1.3838 0"/>
   <path d="m3.7461 125.73c0.14676 0.12031 0.14391 1.0576 0.17131 1.085 0.01347 0.0135 0.04365-0.0135 0.0571 0 0.17528 0.17528-0.03336 0.0475 0.0571 0.22842 0.01902 0.0381 0.08411 0.027 0.11421 0.0571 0.0301 0.0301 0.02701 0.0841 0.0571 0.1142 0.02692 0.0269 0.08016-0.017 0.11421 0 0.21588 0.10795 0.5423 0.0571 0.79946 0.0571"/>
   <path transform="translate(-27.604 -53.972)" x="85.048759" y="163.14496" width="28.259037" height="14.566514" d="m87.875 163.14h22.328a3.1047 3.1047 45 0 1 3.1047 3.1047v8.0179a3.4439 3.4439 135 0 1-3.4439 3.4439h-22.122a2.6927 2.6927 45 0 1-2.6927-2.6927v-9.048a2.8259 2.8259 135 0 1 2.8259-2.8259z"/>
  </g>
  <path d="m5.1243 127.11c0-0.12115-0.015584-0.12713-0.36915-0.14162-0.35375-0.0145-0.37291-0.0219-0.45903-0.17638-0.049432-0.0887-0.10492-0.29726-0.12331-0.4635-0.018388-0.16624-0.045416-0.36599-0.060066-0.44389l-0.026633-0.14162h93.121v1.4935h-92.083z" fill="#333" stroke="#0f1112" stroke-width=".103"/>
  <path d="m5.1665 127.07c-0.018547-0.12823-0.15824-0.18225-0.49165-0.19011-0.16594-4e-3 -0.23539-0.0327-0.29218-0.12101-0.074565-0.11599-0.18539-0.62193-0.18539-0.84634v-0.11929h92.958v1.3905h-91.973z" fill="#333" stroke="#0f1112" stroke-width=".103"/>
  <g fill="#0f1112" stroke="#0f1112">
   <path d="m5.2273 127.05c0-0.1089-0.20547-0.23457-0.38484-0.23538-0.37732-2e-3 -0.46812-0.1289-0.5601-0.78468l-0.027091-0.19312h92.849v1.2875h-45.938c-39.998 0-45.938-0.01-45.938-0.0743z" stroke-width=".103"/>
   <path d="m97.307 126.52v-0.71637h20.53c11.291 0 20.53 0.0259 20.53 0.0576 0 0.2423-0.57383 0.90915-0.99295 1.1539-0.25479 0.14879-2.1116 0.16652-20.174 0.19252l-19.893 0.0286z" stroke-width=".20377"/>
   <path d="m16.206 43.593v-37.127l2.7713-2.7713 52.104 0.00159c50.959 0.00159 52.133 0.019023 53.409 0.79706 2.7094 1.652 2.5669-0.5533 2.5669 39.732v36.495h-110.85zm106.75 30.755c0.83819-1.0656 0.84466-1.3183 0.84466-32.992 0-22.854-0.13074-32.205-0.4604-32.928-0.25323-0.55577-0.94095-1.2089-1.5283-1.4515-0.751-0.31016-15.862-0.40903-50.926-0.3332l-49.858 0.10782-0.77903 0.96211c-0.75242 0.92926-0.77903 2.0696-0.77903 33.392v32.43l1.7722 1.8865h100.87z" stroke-width=".81508"/>
  </g>
  <g fill="none">
   <g stroke="#0f1112">
    <g stroke-width=".34551">
     <rect x="53.781" y="85.28" width="7.3388" height="5.3317"/>
     <rect x="70.034" y="85.28" width="7.3388" height="5.3317"/>
     <rect x="86.287" y="85.28" width="7.3388" height="5.3317"/>
     <rect x="45.654" y="85.28" width="7.3388" height="5.3317"/>
     <rect x="37.528" y="85.28" width="7.3388" height="5.3317"/>
    </g>
    <rect transform="matrix(1 0 -.12096 .99266 0 0)" x="31.391" y="85.911" width="7.3388" height="5.3711" stroke-width=".34679"/>
    <g stroke-width=".34551">
     <rect x="94.413" y="85.28" width="7.3388" height="5.3317"/>
     <rect x="78.16" y="85.28" width="7.3388" height="5.3317"/>
     <rect x="61.907" y="85.28" width="7.3388" height="5.3317"/>
     <rect x="29.401" y="85.28" width="7.3388" height="5.3317"/>
    </g>
    <rect transform="matrix(.99991 -.013435 .17543 .98449 0 0)" x="87.192" y="87.811" width="7.322" height="5.4157" stroke-width=".34782"/>
    <rect transform="matrix(.99996 .0086811 .2301 .97317 0 0)" x="90.713" y="86.824" width="7.3464" height="5.4845" stroke-width=".35061"/>
    <g stroke-width=".35922">
     <rect x="53.54" y="92.362" width="7.6301" height="5.5433"/>
     <rect x="70.438" y="92.362" width="7.6301" height="5.5433"/>
     <rect x="87.336" y="92.362" width="7.6301" height="5.5433"/>
     <rect x="45.091" y="92.362" width="7.6301" height="5.5433"/>
     <rect x="36.642" y="92.362" width="7.6301" height="5.5433"/>
    </g>
    <rect transform="matrix(1 0 -.12096 .99266 0 0)" x="30.712" y="93.045" width="7.6301" height="5.5843" stroke-width=".36055"/>
    <g stroke-width=".35922">
     <rect x="95.785" y="92.362" width="7.6301" height="5.5433"/>
     <rect x="78.887" y="92.362" width="7.6301" height="5.5433"/>
     <rect x="61.989" y="92.362" width="7.6301" height="5.5433"/>
     <rect x="28.193" y="92.362" width="7.6301" height="5.5433"/>
    </g>
    <g stroke-width=".36954">
     <rect x="88.645" y="99.891" width="8.0908" height="5.5323"/>
     <rect x="43.849" y="99.891" width="8.0908" height="5.5323"/>
     <rect x="34.89" y="99.891" width="8.0908" height="5.5323"/>
    </g>
    <rect transform="matrix(1 0 -.1284 .99172 0 0)" x="29.6" y="100.73" width="8.0908" height="5.5784" stroke-width=".37108"/>
    <rect x="97.604" y="99.891" width="8.0908" height="5.5323" stroke-width=".36954"/>
    <rect x="25.93" y="99.891" width="8.0908" height="5.5323" stroke-width=".36954"/>
    <rect transform="matrix(1 0 .18659 .98244 0 0)" x="87.506" y="101.67" width="7.101" height="5.6547" stroke-width=".35001"/>
    <rect transform="matrix(.99997 .0081691 .2629 .96482 0 0)" x="87.619" y="102.71" width="8.1005" height="5.7401" stroke-width=".37664"/>
   </g>
   <rect x="53.251" y="99.808" width="34.196" height="5.665" stroke="#24000e" stroke-width=".52917"/>
   <rect transform="matrix(.99966 .026154 .21507 .9766 0 0)" x="85.239" y="92.063" width="14.863" height="5.5507" stroke="#24000e" stroke-width=".53711"/>
  </g>
 </g>
</svg>
