<?xml version="1.0" encoding="UTF-8" standalone="no"?>
<!-- Created with Inkscape (http://www.inkscape.org/) -->

<svg
   width="500"
   height="500"
   viewBox="0 0 132.29166 132.29167"
   version="1.1"
   id="svg5"
   xmlns="http://www.w3.org/2000/svg">
  <defs
     id="defs2" />
  <g
     id="layer1">
    <path
       style="fill:#00a8f3;stroke:#d10000;stroke-width:0.146;stroke-dasharray:0.146, 0.146;fill-opacity:1"
       id="path111"
       d="M 49.412387,66.759291 7.0595666,34.007938 -18.746451,47.028522 -0.68580409,-3.3721281 -21.043614,-23.891527 32.4713,-22.289489 45.695499,-47.99176 60.708888,3.399005 89.239702,8.0335273 45.003573,38.192728 Z"
       transform="matrix(1.1972932,0,0,1.1503119,25.978043,55.898277)" />
    <ellipse
       style="fill:#ffec19;stroke:#d10000;stroke-width:0.0610414;stroke-dasharray:0.0610414, 0.0610414;fill-opacity:1"
       id="path273"
       cx="61.60479"
       cy="67.387329"
       rx="26.427813"
       ry="26.427986" />
    <path
       style="fill:none;fill-rule:evenodd;stroke:#000000;stroke-width:0.264583"
       id="path1731"
       d="m 50.463715,50.98938 c 0.125254,1.175076 -1.522184,0.748582 -1.953055,0.208181 -1.167634,-1.464452 0.07485,-3.471336 1.536692,-4.11429 2.614888,-1.150095 5.452713,0.758971 6.275526,3.281565 1.207511,3.702008 -1.443462,7.468163 -5.026438,8.436762 -4.775544,1.29099 -9.49665,-2.126918 -10.597998,-6.771312 -1.385934,-5.844496 2.809594,-11.53158 8.516185,-12.759233 6.911446,-1.486853 13.570186,3.491775 14.920469,10.261058 1.591262,7.977366 -4.173637,15.611091 -12.005931,17.081705 C 43.086472,68.311697 34.475634,61.758528 32.886224,52.863011 31.080236,42.75536 38.423017,33.165966 48.381902,31.458835 59.554266,29.543692 70.123245,37.677027 71.947314,48.699386 73.972377,60.936293 65.047799,72.485614 52.96189,74.426034 39.660562,76.561592 27.130324,66.845254 25.074006,53.695737 c -2.246497,-14.365657 8.262,-27.87726 22.475171,-30.04912 15.429916,-2.357787 29.923237,8.943185 32.210355,24.220044 1.258679,8.407378 -1.251244,17.107157 -6.69227,23.623592"
       transform="matrix(0.95220494,0,0,1.0245039,11.695527,16.773518)" />
  </g>
</svg>
