<svg width="50" height="50" version="1.1" viewBox="0 0 13.229 13.229" xmlns="http://www.w3.org/2000/svg">
 <g fill="none" stroke="#290f24">
  <path d="m6.5433 0.57981a6.5099 6.3055 0 0 0-6.5102 6.3056 6.5099 6.3055 0 0 0 3.3838 5.5128 3.2514 3.7561 0 0 1 3.2267-3.3559 3.2514 3.7561 0 0 1 3.221 3.2525 6.5099 6.3055 0 0 0 3.1884-5.4095 6.5099 6.3055 0 0 0-6.5097-6.3056z" stroke-width=".2771"/>
  <path d="m6.7635 24.685a6.5099 6.3055 0 0 0 6.5102-6.3056 6.5099 6.3055 0 0 0-3.3838-5.5128 3.2514 3.7561 0 0 1-3.2267 3.3559 3.2514 3.7561 0 0 1-3.221-3.2525 6.5099 6.3055 0 0 0-3.1884 5.4095 6.5099 6.3055 0 0 0 6.5097 6.3056z" stroke-width=".2771"/>
  <ellipse cx="6.6731" cy="12.632" rx="2.7144" ry="3.0962" stroke-width=".34701"/>
 </g>
</svg>
